<svg width="36" height="36" viewBox="0 0 36 36" fill="none" xmlns="http://www.w3.org/2000/svg">
<rect opacity="0.1" width="36" height="36" rx="5" fill="#C1B124"/>
<path d="M9.09075 8.95993L9.09075 8.95993C9.20877 9.24665 9.0707 9.58131 8.78291 9.70035C8.49697 9.81861 8.15902 9.68023 8.04016 9.39411L9.09075 8.95993ZM9.09075 8.95993L9.09054 8.95942M9.09075 8.95993L9.09054 8.95942M9.09054 8.95942C8.97127 8.67421 8.63471 8.53447 8.3478 8.65343L8.34779 8.65343M9.09054 8.95942L8.34779 8.65343M8.34779 8.65343C8.06138 8.7722 7.92094 9.1072 8.04015 9.3941L8.34779 8.65343Z" fill="#C1B124" stroke="#C1B124" stroke-width="0.2"/>
<path d="M10.3845 9.70036L10.3845 9.70036C10.0977 9.81932 9.7602 9.67982 9.64159 9.39362L10.3845 9.70036ZM10.3845 9.70036C10.6698 9.58199 10.812 9.24709 10.6921 8.9602C10.5739 8.67304 10.235 8.53548 9.94939 8.65342L10.3845 9.70036ZM9.94939 8.65343C9.6625 8.77191 9.5228 9.107 9.64159 9.39361L9.94939 8.65343Z" fill="#C1B124" stroke="#C1B124" stroke-width="0.2"/>
<path d="M11.3447 9.39348L11.3447 9.39348C11.4634 9.67968 11.8008 9.81912 12.0876 9.70022L12.0876 9.70022C12.373 9.5819 12.5151 9.24689 12.3952 8.96006C12.2769 8.67266 11.9379 8.53582 11.6526 8.65323C11.3653 8.77147 11.2261 9.10725 11.3447 9.39348Z" fill="#C1B124" stroke="#C1B124" stroke-width="0.2"/>
<path d="M26.1743 18.9498V21.9173L22.3806 20.7141L22.3806 20.7141C21.9477 20.577 21.5282 20.9951 21.6661 21.4266C21.6661 21.4266 21.6661 21.4266 21.6661 21.4266L22.9322 25.3886H8.2432C7.5781 25.3886 7.03754 24.8494 7.03754 24.1877V11.4539H26.1743V14.8372C26.1743 15.1508 26.4293 15.4043 26.743 15.4043C27.0568 15.4043 27.3118 15.1508 27.3118 14.8372L27.3122 9.23476C27.3122 7.94696 26.261 6.9 24.9693 6.9H8.2432C6.95152 6.9 5.90023 7.94696 5.90023 9.23475L5.9 24.1877C5.9 25.4757 6.95143 26.5227 8.2432 26.5227H23.2945L23.9918 28.705C24.0664 28.9383 24.2888 29.1001 24.5339 29.1C24.7791 29.0999 25.0016 28.9379 25.0759 28.7044L25.628 26.9696L27.5905 28.9249C27.8126 29.1462 28.1724 29.1462 28.3946 28.9249L28.324 28.8541L28.3946 28.9249L29.9329 27.3923C29.9332 27.392 29.9334 27.3918 29.9337 27.3916C30.1553 27.1784 30.1553 26.8012 29.9336 26.5881C29.9334 26.5878 29.9331 26.5876 29.9329 26.5873L27.9775 24.6391L29.6816 24.1131C29.9166 24.0406 30.0813 23.8193 30.0822 23.5736C30.0831 23.3281 29.9203 23.1054 29.6858 23.0311L27.3118 22.2781V18.9498C27.3118 18.6363 27.0568 18.3828 26.743 18.3828C26.4293 18.3828 26.1743 18.6363 26.1743 18.9498ZM24.5327 26.6614L23.084 22.1274L27.614 23.5641L26.7401 23.8338L26.7401 23.8338C26.3379 23.9581 26.2072 24.4787 26.5062 24.7767L26.5768 24.7058L26.5062 24.7767L28.7276 26.9899L27.9925 27.7222L25.7707 25.5085C25.4735 25.2123 24.9535 25.3394 24.8265 25.7381L24.8265 25.7381L24.5327 26.6614ZM7.03777 9.23475C7.03777 8.57317 7.57824 8.03411 8.2432 8.03411H24.9693C25.6342 8.03411 26.1747 8.57317 26.1747 9.23475V10.3197H7.03777V9.23475Z" fill="#C1B124" stroke="#C1B124" stroke-width="0.2"/>
<path d="M13.5464 15.038L13.5464 15.0381C13.8541 15.1003 14.0534 15.3994 13.9907 15.7067M13.5464 15.038L11.5072 12.2252C11.375 12.2075 11.2432 12.1986 11.1156 12.1986C9.49786 12.1986 8.18125 13.5098 8.18125 15.1225C8.18125 16.7351 9.49786 18.0464 11.1156 18.0464C12.5052 18.0464 13.7144 17.0629 13.9907 15.7067M13.5464 15.038C13.239 14.976 12.9386 15.1737 12.876 15.4809M13.5464 15.038L12.876 15.4809M13.9907 15.7067L13.8927 15.6867L13.9907 15.7067C13.9907 15.7067 13.9907 15.7067 13.9907 15.7067ZM12.876 15.4809C12.7071 16.3097 11.9668 16.9123 11.1155 16.9123M12.876 15.4809L11.1155 16.9123M11.1155 16.9123C10.1245 16.9123 9.31874 16.1089 9.31874 15.1225M11.1155 16.9123L9.31874 15.1225M9.31874 15.1225C9.31874 14.136 10.1245 13.3327 11.1155 13.3327M9.31874 15.1225L11.1155 13.3327M11.1155 13.3327C11.1924 13.3327 11.2735 13.3382 11.3565 13.3493M11.1155 13.3327L11.3565 13.3493M11.3565 13.3493C11.6673 13.3908 11.9539 13.1732 11.9956 12.8624M11.3565 13.3493L11.9956 12.8624M11.9956 12.8624C12.0373 12.5517 11.8183 12.2667 11.5072 12.2252L11.9956 12.8624Z" fill="#C1B124" stroke="#C1B124" stroke-width="0.2"/>
<path d="M11.1156 24.5906C12.7333 24.5906 14.0498 23.2793 14.0498 21.6667C14.0498 20.054 12.7333 18.7428 11.1156 18.7428C9.49786 18.7428 8.18125 20.054 8.18125 21.6667C8.18125 23.2793 9.49786 24.5906 11.1156 24.5906ZM11.1156 19.8768C12.1066 19.8768 12.9123 20.6802 12.9123 21.6667C12.9123 22.6531 12.1066 23.4565 11.1156 23.4565C10.1245 23.4565 9.31879 22.6531 9.31879 21.6667C9.31879 20.6802 10.1245 19.8768 11.1156 19.8768Z" fill="#C1B124" stroke="#C1B124" stroke-width="0.2"/>
<path d="M23.1905 13.3722H15.543C15.2293 13.3722 14.9742 13.6257 14.9742 13.9392C14.9742 14.2528 15.2293 14.5063 15.543 14.5063H23.1905C23.5042 14.5063 23.7593 14.2528 23.7593 13.9392C23.7593 13.6257 23.5042 13.3722 23.1905 13.3722Z" fill="#C1B124" stroke="#C1B124" stroke-width="0.2"/>
<path d="M23.7593 16.1834C23.7593 15.8698 23.5042 15.6163 23.1905 15.6163H15.543C15.2293 15.6163 14.9742 15.8698 14.9742 16.1834C14.9742 16.4969 15.2293 16.7504 15.543 16.7504H23.1905C23.5042 16.7504 23.7593 16.4969 23.7593 16.1834Z" fill="#C1B124" stroke="#C1B124" stroke-width="0.2"/>
<path d="M15.543 21.1418H19.8593C20.1731 21.1418 20.4281 20.8883 20.4281 20.5747C20.4281 20.2612 20.1731 20.0077 19.8593 20.0077H15.543C15.2293 20.0077 14.9742 20.2612 14.9742 20.5747C14.9742 20.8883 15.2293 21.1418 15.543 21.1418Z" fill="#C1B124" stroke="#C1B124" stroke-width="0.2"/>
<path d="M15.543 23.3859H20.3285C20.6422 23.3859 20.8973 23.1324 20.8973 22.8189C20.8973 22.5053 20.6422 22.2518 20.3285 22.2518H15.543C15.2293 22.2518 14.9742 22.5053 14.9742 22.8189C14.9742 23.1324 15.2293 23.3859 15.543 23.3859Z" fill="#C1B124" stroke="#C1B124" stroke-width="0.2"/>
<path d="M10.8318 14.4467L10.8318 14.4467L11.1482 14.7621L13.0236 12.8936L13.0236 12.8935C13.2459 12.6724 13.6057 12.6723 13.8277 12.8936L10.8318 14.4467ZM10.8318 14.4467C10.6097 14.2255 10.2498 14.2255 10.0277 14.4467L10.0276 14.4467M10.8318 14.4467L10.0276 14.4467M10.0276 14.4467C9.80536 14.6682 9.80538 15.0274 10.0276 15.2489L10.0276 15.249M10.0276 14.4467L10.0276 15.249M10.0276 15.249L10.7462 15.9649L10.7462 15.9649M10.0276 15.249L10.7462 15.9649M10.7462 15.9649C10.9683 16.1861 11.3281 16.1861 11.5503 15.9649L11.5503 15.9649M10.7462 15.9649L11.5503 15.9649M11.5503 15.9649L13.8277 13.6958M11.5503 15.9649L13.8277 13.6958M13.8277 13.6958C14.05 13.4743 14.05 13.1151 13.8278 12.8936L13.8277 13.6958Z" fill="#C1B124" stroke="#C1B124" stroke-width="0.2"/>
<path d="M27.1652 17.2731L27.1651 17.2731C26.8099 17.6585 26.1379 17.3787 26.1791 16.8479C26.1975 16.6108 26.3647 16.4078 26.5944 16.3441L27.1652 17.2731ZM27.1652 17.2731C27.3408 17.0824 27.3624 16.7902 27.2189 16.5755C27.0852 16.3721 26.826 16.2798 26.5944 16.3441L27.1652 17.2731Z" fill="#C1B124" stroke="#C1B124" stroke-width="0.2"/>
</svg>
