<svg width="36" height="36" viewBox="0 0 36 36" fill="none" xmlns="http://www.w3.org/2000/svg">
<rect opacity="0.1" width="36" height="36" rx="5" fill="#00BA00"/>
<path d="M30.2383 22.8684H29.3682V10.5658C29.3682 9.16353 28.3114 8 26.9747 8H9.02528C7.71207 8 6.6318 9.13811 6.6318 10.5658V22.8684H5.76172C5.34105 22.8684 5 23.234 5 23.685V25.4342C5 26.8362 6.05645 28 7.39347 28H28.6065C29.9195 28 31 26.8623 31 25.4342V23.685C31 23.234 30.659 22.8684 30.2383 22.8684ZM8.15519 10.5658C8.15519 10.0519 8.54306 9.6331 9.02523 9.6331H26.9747C27.4551 9.6331 27.8448 10.0499 27.8448 10.5658V22.8684H24.0173C23.7465 20.5621 22.3441 18.6283 20.4269 17.7273C22.5419 15.4636 21.0212 11.4907 17.9999 11.4985C14.9788 11.4907 13.458 15.4642 15.5731 17.7273C13.6559 18.6283 12.2535 20.5621 11.9828 22.8684H8.15519V10.5658ZM18 18.8165C20.2447 18.8165 22.1139 20.5714 22.4773 22.8684H20.4477C20.2456 22.8684 20.0519 22.9544 19.9091 23.1076C19.7916 23.2335 19.6289 23.3058 19.4629 23.3058H16.5372C16.3711 23.3058 16.2085 23.2335 16.0908 23.1075C15.948 22.9544 15.7543 22.8684 15.5523 22.8684H13.5227C13.8861 20.5714 15.7553 18.8165 18 18.8165ZM16.1101 15.1575C16.1101 14.0404 16.9579 13.1316 18 13.1316C20.5038 13.2334 20.5031 17.082 18 17.1835C16.9579 17.1835 16.1101 16.2746 16.1101 15.1575ZM29.4766 25.4342C29.4766 25.9481 29.0887 26.3669 28.6065 26.3669H7.39347C6.91308 26.3669 6.52344 25.95 6.52344 25.4342V24.5015H15.2749C15.6399 24.7855 16.0776 24.9389 16.5371 24.9389H19.4628C19.9224 24.9389 20.3601 24.7856 20.7251 24.5015H29.4766V25.4342Z" fill="#00BA00"/>
</svg>
