<svg width="36" height="36" viewBox="0 0 36 36" fill="none" xmlns="http://www.w3.org/2000/svg">
<rect opacity="0.1" width="36" height="36" rx="5" fill="#82C124"/>
<path d="M18 16.1666C17.9917 16.1666 17.9826 16.1666 17.9743 16.1666C17.7672 16.1584 17.5747 16.0576 17.45 15.8916L16.2812 14.3333H14.1042C13.2196 14.3333 12.5 13.6137 12.5 12.7292V8.60416C12.5 7.71958 13.2196 7 14.1042 7H21.8958C22.7804 7 23.5 7.71958 23.5 8.60416V12.7292C23.5 13.6137 22.7804 14.3333 21.8958 14.3333H19.9158L18.517 15.932C18.3868 16.0814 18.198 16.1666 18 16.1666ZM14.1042 8.375C13.9777 8.375 13.875 8.47766 13.875 8.60416V12.7292C13.875 12.8557 13.9777 12.9583 14.1042 12.9583H16.625C16.8413 12.9583 17.0448 13.0601 17.175 13.2333L18.0412 14.3883L19.0872 13.1939C19.2173 13.0436 19.4061 12.9583 19.6041 12.9583H21.8958C22.0223 12.9583 22.125 12.8557 22.125 12.7292V8.60416C22.125 8.47766 22.0223 8.375 21.8958 8.375H14.1042Z" fill="#82C124"/>
<path d="M25.3335 17.0836C25.3243 17.0836 25.3151 17.0836 25.3069 17.0836C25.0988 17.0754 24.9063 16.9736 24.7825 16.8077L24.0584 15.8361C23.8311 15.5317 23.8943 15.1009 24.1986 14.8736C24.5039 14.6462 24.9338 14.7095 25.1611 15.0138L25.3765 15.3035L26.4206 14.1109C26.5508 13.9606 26.7396 13.8753 26.9376 13.8753H27.396C27.5206 13.8753 27.6251 13.7708 27.6251 13.6461V9.52115C27.6251 9.39649 27.5206 9.29199 27.396 9.29199H26.021C25.6415 9.29199 25.3335 8.98399 25.3335 8.60449C25.3335 8.22499 25.6415 7.91699 26.021 7.91699H27.396C28.2805 7.91699 29.0001 8.63657 29.0001 9.52115V13.6461C29.0001 14.5307 28.2805 15.2503 27.396 15.2503H27.2493L25.8505 16.849C25.7203 16.9984 25.5315 17.0836 25.3335 17.0836Z" fill="#82C124"/>
<path d="M10.6667 17.0831C10.4687 17.0831 10.2798 16.9979 10.1497 16.8485L8.75083 15.2498H8.60416C7.71958 15.2498 7 14.5302 7 13.6457V9.52067C7 8.63609 7.71958 7.9165 8.60416 7.9165H9.97916C10.3587 7.9165 10.6667 8.2245 10.6667 8.604C10.6667 8.9835 10.3587 9.2915 9.97916 9.2915H8.60416C8.4795 9.2915 8.375 9.396 8.375 9.52067V13.6457C8.375 13.7703 8.4795 13.8748 8.60416 13.8748H9.06249C9.26049 13.8748 9.44933 13.9601 9.57949 14.1095L10.6236 15.3021L10.839 15.0124C11.0663 14.7081 11.4962 14.6448 11.8015 14.8722C12.1058 15.0995 12.1691 15.5303 11.9417 15.8347L11.2176 16.8063C11.0938 16.9731 10.9013 17.0749 10.6932 17.0831C10.685 17.0831 10.6758 17.0831 10.6667 17.0831Z" fill="#82C124"/>
<path d="M25.3333 22.5832C24.3222 22.5832 23.5 21.7609 23.5 20.7498C23.5 19.7388 24.3222 18.9165 25.3333 18.9165C26.3444 18.9165 27.1667 19.7388 27.1667 20.7498C27.1667 21.7609 26.3444 22.5832 25.3333 22.5832ZM25.3333 20.2915C25.0803 20.2915 24.875 20.4968 24.875 20.7498C24.875 21.0028 25.0803 21.2082 25.3333 21.2082C25.5863 21.2082 25.7917 21.0028 25.7917 20.7498C25.7917 20.4968 25.5863 20.2915 25.3333 20.2915Z" fill="#82C124"/>
<path d="M28.3125 27.1667C27.933 27.1667 27.625 26.8587 27.625 26.4792V26.0208C27.625 25.3892 27.1107 24.875 26.4792 24.875H24.1875C23.808 24.875 23.5 24.567 23.5 24.1875C23.5 23.808 23.808 23.5 24.1875 23.5H26.4792C27.8697 23.5 29 24.6302 29 26.0208V26.4792C29 26.8587 28.692 27.1667 28.3125 27.1667Z" fill="#82C124"/>
<path d="M10.6654 22.5832C9.65428 22.5832 8.83203 21.7609 8.83203 20.7498C8.83203 19.7388 9.65428 18.9165 10.6654 18.9165C11.6764 18.9165 12.4987 19.7388 12.4987 20.7498C12.4987 21.7609 11.6764 22.5832 10.6654 22.5832ZM10.6654 20.2915C10.4124 20.2915 10.207 20.4968 10.207 20.7498C10.207 21.0028 10.4124 21.2082 10.6654 21.2082C10.9184 21.2082 11.1237 21.0028 11.1237 20.7498C11.1237 20.4968 10.9184 20.2915 10.6654 20.2915Z" fill="#82C124"/>
<path d="M7.6875 27.1664C7.308 27.1664 7 26.8584 7 26.4789V26.0206C7 24.63 8.13025 23.4998 9.52083 23.4998H11.8125C12.192 23.4998 12.5 23.8078 12.5 24.1873C12.5 24.5668 12.192 24.8748 11.8125 24.8748H9.52083C8.88925 24.8748 8.375 25.389 8.375 26.0206V26.4789C8.375 26.8584 8.067 27.1664 7.6875 27.1664Z" fill="#82C124"/>
<path d="M18 23.0415C16.4838 23.0415 15.25 21.8077 15.25 20.2915C15.25 18.7753 16.4838 17.5415 18 17.5415C19.5162 17.5415 20.75 18.7753 20.75 20.2915C20.75 21.8077 19.5162 23.0415 18 23.0415ZM18 18.9165C17.2419 18.9165 16.625 19.5334 16.625 20.2915C16.625 21.0496 17.2419 21.6665 18 21.6665C18.7581 21.6665 19.375 21.0496 19.375 20.2915C19.375 19.5334 18.7581 18.9165 18 18.9165Z" fill="#82C124"/>
<path d="M22.3528 28.9998C21.9733 28.9998 21.6653 28.6918 21.6653 28.3123V26.9373C21.6653 26.3057 21.1511 25.7915 20.5195 25.7915H15.4779C14.8463 25.7915 14.332 26.3057 14.332 26.9373V28.3123C14.332 28.6918 14.024 28.9998 13.6445 28.9998C13.265 28.9998 12.957 28.6918 12.957 28.3123V26.9373C12.957 25.5468 14.0873 24.4165 15.4779 24.4165H20.5195C21.9101 24.4165 23.0403 25.5468 23.0403 26.9373V28.3123C23.0403 28.6918 22.7323 28.9998 22.3528 28.9998Z" fill="#82C124"/>
</svg>
