<svg width="28" height="28" viewBox="0 0 28 28" fill="none" xmlns="http://www.w3.org/2000/svg">
<g id="Group 35712">
<rect id="Rectangle 5" width="28" height="28" rx="14" fill="#55347B"/>
<g id="Group 29652">
<g id="Group 29649">
<g id="Group 29648">
<path id="Path 197564" d="M13.7198 3.89062C12.6812 3.89063 11.666 4.19859 10.8025 4.77558C9.93894 5.35258 9.2659 6.17268 8.86846 7.13218C8.47102 8.09168 8.36704 9.14749 8.56965 10.1661C8.77226 11.1847 9.27237 12.1203 10.0067 12.8547C10.7411 13.5891 11.6768 14.0892 12.6954 14.2918C13.714 14.4944 14.7698 14.3904 15.7293 13.993C16.6888 13.5955 17.5089 12.9225 18.0859 12.059C18.6629 11.1955 18.9708 10.1802 18.9708 9.14166C18.9672 7.75012 18.4128 6.41662 17.4288 5.43265C16.4448 4.44868 15.1113 3.89427 13.7198 3.89062Z" fill="white"/>
</g>
</g>
<g id="Group 29651">
<g id="Group 29650">
<path id="Path 197565" d="M22.7277 18.5826C22.5885 18.2429 22.4115 17.9198 22.2001 17.6197C21.6899 16.8546 21.0237 16.206 20.2453 15.7163C19.4669 15.2267 18.5938 14.907 17.6832 14.7783C17.4494 14.749 17.2129 14.8061 17.0182 14.9389C16.0597 15.6393 14.9033 16.0168 13.7161 16.0168C12.529 16.0168 11.3726 15.6393 10.4141 14.9389C10.3201 14.868 10.2126 14.8172 10.0982 14.7896C9.98383 14.762 9.865 14.7582 9.74907 14.7783C8.83759 14.9041 7.96334 15.2225 7.18451 15.7124C6.40568 16.2023 5.74013 16.8525 5.23216 17.6197C5.02543 17.9227 4.84874 18.2453 4.7046 18.5826C4.67439 18.652 4.66075 18.7275 4.66474 18.803C4.66874 18.8786 4.69028 18.9522 4.72764 19.018C4.91527 19.3359 5.12196 19.6421 5.34658 19.9349C5.66116 20.3638 6.01434 20.763 6.4017 21.1275C6.73764 21.4508 7.0898 21.7569 7.45683 22.0444C9.26003 23.3844 11.4469 24.108 13.6935 24.108C15.9401 24.108 18.1269 23.3844 19.9302 22.0444C20.3026 21.7636 20.6552 21.4572 20.9853 21.1275C21.3664 20.757 21.7191 20.3584 22.0404 19.9349C22.2675 19.6439 22.4743 19.3375 22.6593 19.018C22.7131 18.9607 22.7484 18.8885 22.7606 18.8109C22.7728 18.7332 22.7613 18.6537 22.7277 18.5826Z" fill="white"/>
</g>
</g>
</g>
</g>
</svg>
