<svg width="36" height="36" viewBox="0 0 36 36" fill="none" xmlns="http://www.w3.org/2000/svg">
<rect opacity="0.1" x="0.5" y="0.5" width="35" height="35" rx="4.5" fill="#25B7D3" stroke="#25B7D3"/>
<path d="M28.4135 25.8164C29.4319 24.6485 29.9959 23.153 30.0022 21.6035C30.0022 17.9737 26.8159 14.9226 22.6684 14.4714C22.7564 14.0543 22.801 13.6293 22.8014 13.203C22.8014 9.23067 19.033 6 14.401 6C9.76896 6 6.00059 9.23067 6.00059 13.2008C6.00657 14.6261 6.48673 16.0088 7.36536 17.1311L6.02609 20.6589C5.9981 20.7325 5.99249 20.8128 6.00995 20.8897C6.0274 20.9665 6.06716 21.0365 6.12422 21.0908C6.18129 21.1452 6.25313 21.1815 6.33073 21.1951C6.40834 21.2088 6.48825 21.1993 6.56047 21.1677L10.3388 19.5047C11.2825 19.948 12.2948 20.2273 13.3322 20.3307C13.2445 20.7482 13.2003 21.1736 13.2003 21.6001C13.2003 25.5703 16.9698 28.801 21.6007 28.801C22.8834 28.8039 24.1536 28.549 25.3358 28.0515L29.4324 29.9628C29.5058 29.9969 29.5878 30.0079 29.6676 29.9944C29.7474 29.9809 29.8212 29.9435 29.8793 29.8872C29.9374 29.8309 29.9771 29.7583 29.9931 29.679C30.0091 29.5996 30.0007 29.5173 29.969 29.4429L28.4135 25.8164ZM10.188 18.6987L7.10926 20.0513L8.19243 17.1976C8.21726 17.1319 8.22439 17.0609 8.21311 16.9916C8.20182 16.9224 8.17251 16.8573 8.12813 16.8029C7.27741 15.7924 6.80678 14.5162 6.79772 13.1953C6.79994 9.67192 10.2135 6.80046 14.401 6.80046C18.5885 6.80046 22.0021 9.67192 22.0021 13.2008C22.0005 13.7122 21.9258 14.2206 21.7803 14.7108C20.9566 17.5934 17.9188 19.6012 14.3966 19.6012C14.2158 19.6012 14.0385 19.6012 13.8511 19.5823C12.6942 19.5223 11.5621 19.225 10.5251 18.7087C10.4725 18.6823 10.4147 18.6678 10.3559 18.6663C10.2971 18.6647 10.2386 18.6762 10.1847 18.6998L10.188 18.6987ZM25.5132 27.251C25.461 27.2272 25.4043 27.2148 25.3469 27.2148C25.2895 27.2148 25.2328 27.2272 25.1806 27.251C24.0551 27.751 22.8367 28.0076 21.6052 28.0038C17.4144 28.0038 14.0041 25.1324 14.0041 21.6035C14.0042 21.1986 14.05 20.7951 14.1405 20.4005C14.228 20.4005 14.3156 20.4005 14.4043 20.4005C14.6431 20.4005 14.8792 20.392 15.1128 20.375C15.1926 20.3695 15.2691 20.3573 15.3478 20.3507C15.5008 20.3362 15.6549 20.3218 15.8068 20.3008C15.8999 20.2875 15.9908 20.2675 16.0829 20.252C16.217 20.2287 16.3512 20.2076 16.4831 20.1788C16.5806 20.1577 16.676 20.13 16.7724 20.1067C16.8955 20.0757 17.0186 20.0469 17.1394 20.0114C17.2381 19.9826 17.3334 19.9482 17.431 19.9161C17.5419 19.8784 17.6616 19.8418 17.7736 19.7996C17.8856 19.7575 17.9654 19.722 18.0607 19.6821C18.1561 19.6422 18.2769 19.5945 18.3811 19.5458C18.4853 19.497 18.5685 19.4526 18.6616 19.4061C18.7548 19.3595 18.8634 19.3052 18.9621 19.252C19.0607 19.1987 19.1428 19.1411 19.2326 19.0923C19.3224 19.0435 19.4211 18.9814 19.512 18.9205C19.6029 18.8595 19.6849 18.8007 19.7703 18.7409C19.8557 18.681 19.9444 18.6167 20.0286 18.5524C20.1129 18.4881 20.1916 18.4205 20.2725 18.3528C20.3535 18.2852 20.4322 18.2187 20.5098 18.1488C20.5874 18.079 20.6617 18.0047 20.7315 17.9271C20.8014 17.8495 20.8779 17.7819 20.9533 17.7054C21.0286 17.6289 21.0929 17.5513 21.1606 17.4725C21.2282 17.3938 21.2925 17.3173 21.3557 17.2375C21.4189 17.1577 21.481 17.0734 21.5408 16.9892C21.6007 16.9049 21.6606 16.824 21.7149 16.7386C21.7692 16.6532 21.8258 16.5668 21.8746 16.4781C21.9233 16.3894 21.9777 16.3018 22.0253 16.2109C22.073 16.12 22.1185 16.0313 22.1617 15.9404C22.2049 15.8494 22.2493 15.7519 22.2892 15.6565C22.3291 15.5612 22.3646 15.4725 22.4001 15.376C22.4178 15.3284 22.44 15.2829 22.4555 15.2341C26.266 15.5945 29.2051 18.3384 29.2051 21.5946C29.1956 23.0349 28.641 24.4181 27.653 25.4661C27.6013 25.5228 27.567 25.5932 27.5542 25.6689C27.5415 25.7446 27.5507 25.8223 27.5809 25.8929L28.8237 28.7899L25.5132 27.251Z" fill="#25B7D3" stroke="#25B7D3" stroke-linecap="round"/>
<path d="M18.9714 25.3825C18.9241 25.3825 18.8798 25.3648 18.8384 25.3293C18.8029 25.2939 18.7852 25.2495 18.7852 25.1963C18.7852 25.1727 18.7911 25.1461 18.8029 25.1165L20.9402 19.3963C20.958 19.3372 20.9905 19.2869 21.0378 19.2455C21.091 19.1982 21.1619 19.1746 21.2506 19.1746H22.2173C22.306 19.1746 22.374 19.1982 22.4213 19.2455C22.4686 19.2869 22.504 19.3372 22.5277 19.3963L24.665 25.1165C24.6709 25.1461 24.6739 25.1727 24.6739 25.1963C24.6739 25.2495 24.6561 25.2939 24.6207 25.3293C24.5852 25.3648 24.5438 25.3825 24.4965 25.3825H23.7249C23.6422 25.3825 23.5801 25.3648 23.5387 25.3293C23.5032 25.288 23.4796 25.2495 23.4678 25.214L23.0509 24.1321H20.417L20.0001 25.214C19.9883 25.2495 19.9617 25.288 19.9203 25.3293C19.8849 25.3648 19.8257 25.3825 19.743 25.3825H18.9714ZM20.7274 23.1122H22.7405L21.7295 20.3718L20.7274 23.1122Z" fill="#25B7D3" stroke="#25B7D3" stroke-width="0.2"/>
<path fill-rule="evenodd" clip-rule="evenodd" d="M21.2599 19.2791C21.1914 19.2791 21.149 19.2969 21.1207 19.322C21.0888 19.35 21.0673 19.383 21.0557 19.4218L21.0536 19.4288L18.9151 25.1513C18.9069 25.1721 18.9053 25.1844 18.9053 25.19C18.9053 25.214 18.9117 25.2291 18.9233 25.2418C18.9462 25.2604 18.9647 25.2654 18.9807 25.2654H19.7523C19.8238 25.2654 19.8466 25.2493 19.8512 25.2446C19.8866 25.2092 19.9001 25.1851 19.9043 25.1727L19.9059 25.1678L20.3502 24.0149H23.1363L23.5823 25.1726C23.5876 25.1884 23.6 25.2118 23.6255 25.2429C23.6411 25.2534 23.6728 25.2654 23.7342 25.2654H24.5058C24.5218 25.2654 24.5355 25.2607 24.5516 25.2446C24.5649 25.2313 24.5723 25.2158 24.5723 25.19C24.5723 25.177 24.5709 25.1606 24.5672 25.1402L22.4336 19.43C22.4164 19.3874 22.3912 19.3521 22.3576 19.3226L22.352 19.3177C22.3316 19.2973 22.2958 19.2791 22.2266 19.2791H21.2599ZM20.9737 19.156C21.0518 19.0868 21.1512 19.0574 21.2599 19.0574H22.2266C22.3334 19.0574 22.4323 19.0859 22.5062 19.1581C22.5655 19.2107 22.6103 19.2747 22.6399 19.3488L22.6409 19.3511L24.7813 25.0797L24.783 25.0884C24.79 25.1233 24.794 25.1574 24.794 25.19C24.794 25.2706 24.766 25.3438 24.7083 25.4014C24.6535 25.4563 24.5844 25.4871 24.5058 25.4871H23.7342C23.6382 25.4871 23.5455 25.4669 23.4759 25.4072L23.4694 25.4016L23.4638 25.3952C23.4236 25.3482 23.3909 25.2983 23.3728 25.2454L22.9841 24.2366H20.5024L20.1137 25.2455C20.0939 25.3029 20.0546 25.3548 20.008 25.4014C19.9417 25.4677 19.8463 25.4871 19.7523 25.4871H18.9807C18.9029 25.4871 18.8338 25.4571 18.7755 25.4072L18.769 25.4016C18.7114 25.344 18.6836 25.2706 18.6836 25.19C18.6836 25.1487 18.6937 25.1083 18.7088 25.0703L20.8445 19.3543C20.8685 19.2766 20.9122 19.21 20.9737 19.156ZM21.7384 20.044L22.9089 23.2167H20.5781L21.7384 20.044ZM21.7393 20.687L20.8952 22.995H22.5908L21.7393 20.687Z" fill="#25B7D3" stroke="#25B7D3" stroke-width="0.2"/>
<path d="M16.5426 16.5849C16.584 16.644 16.6047 16.7327 16.6047 16.851C16.6047 16.9988 16.5367 17.1288 16.4007 17.2412C16.2647 17.3535 16.1081 17.4097 15.9307 17.4097C15.7592 17.4097 15.6321 17.3328 15.5493 17.1791L15.1325 16.4785C14.8487 16.5613 14.5502 16.6026 14.2368 16.6026C13.6633 16.6026 13.1667 16.4785 12.7469 16.2302C12.333 15.9818 12.0137 15.6241 11.7891 15.1571C11.5703 14.69 11.4609 14.1342 11.4609 13.4898C11.4609 12.8217 11.5792 12.2423 11.8157 11.7515C12.0522 11.2608 12.3862 10.8824 12.8178 10.6164C13.2553 10.3503 13.7697 10.2173 14.361 10.2173C14.9285 10.2173 15.4193 10.3414 15.8331 10.5898C16.247 10.8381 16.5633 11.1958 16.7821 11.6629C17.0067 12.1299 17.1191 12.6857 17.1191 13.3301C17.1191 13.8859 17.0333 14.3855 16.8619 14.8289C16.6963 15.2664 16.4569 15.6301 16.1435 15.9198L16.5426 16.5849ZM14.2457 15.565C14.358 15.565 14.4674 15.5562 14.5738 15.5384L14.0328 14.625C13.9855 14.5481 13.9619 14.4594 13.9619 14.3589C13.9619 14.2111 14.0299 14.081 14.1658 13.9687C14.3018 13.8563 14.4585 13.8002 14.6359 13.8002C14.8073 13.8002 14.9374 13.877 15.0261 14.0308L15.5227 14.8733C15.7415 14.5067 15.8509 13.9923 15.8509 13.3301C15.8509 11.9467 15.3483 11.2549 14.3432 11.2549C13.817 11.2549 13.4179 11.4441 13.146 11.8225C12.874 12.195 12.738 12.7448 12.738 13.472C12.738 14.8674 13.2406 15.565 14.2457 15.565Z" fill="#25B7D3" stroke="#25B7D3" stroke-width="0.2"/>
<path fill-rule="evenodd" clip-rule="evenodd" d="M14.3624 10.3296C13.7885 10.3296 13.2948 10.4586 12.8772 10.7124C12.4651 10.9665 12.145 11.3281 11.917 11.8012C11.6892 12.2739 11.5733 12.8361 11.5733 13.4913C11.5733 14.1232 11.6805 14.662 11.8907 15.111C12.1066 15.5597 12.4115 15.9001 12.8051 16.1364C13.2049 16.3728 13.6812 16.4933 14.2383 16.4933C14.5418 16.4933 14.8298 16.4532 15.103 16.3735L15.1854 16.3495L15.6485 17.128C15.6822 17.1905 15.7218 17.2322 15.7656 17.2587C15.8093 17.2851 15.8635 17.3003 15.9322 17.3003C16.0839 17.3003 16.2156 17.253 16.3316 17.1572C16.4475 17.0614 16.4953 16.9607 16.4953 16.8524C16.4953 16.7437 16.4757 16.682 16.4533 16.65L16.4488 16.6436L16.0036 15.901L16.0698 15.8398C16.3693 15.5629 16.5996 15.2142 16.7597 14.7912C16.9255 14.3625 17.0097 13.876 17.0097 13.3316C17.0097 12.6999 16.8996 12.1613 16.6837 11.7124L16.6832 11.7114C16.4731 11.2628 16.1712 10.9225 15.7776 10.6863C15.3838 10.45 14.9135 10.3296 14.3624 10.3296ZM12.7617 10.5231C13.2191 10.245 13.7541 10.1079 14.3624 10.1079C14.9465 10.1079 15.4577 10.2358 15.8917 10.4962C16.3256 10.7566 16.6563 11.1314 16.8837 11.6168C17.117 12.102 17.2314 12.6747 17.2314 13.3316C17.2314 13.8986 17.144 14.412 16.9669 14.87C16.8075 15.2913 16.5806 15.6487 16.2856 15.9402L16.6373 16.5263C16.6959 16.6122 16.717 16.7264 16.717 16.8524C16.717 17.0398 16.6288 17.1992 16.4728 17.3281C16.3168 17.457 16.1352 17.522 15.9322 17.522C15.8294 17.522 15.7343 17.4988 15.6509 17.4484C15.5683 17.3984 15.5034 17.3255 15.4544 17.2353L15.082 16.6094C14.8126 16.6799 14.5313 16.715 14.2383 16.715C13.6484 16.715 13.1316 16.5871 12.6919 16.3271C12.2581 16.0668 11.924 15.6917 11.6907 15.2066L11.6902 15.2056C11.463 14.7206 11.3516 14.148 11.3516 13.4913C11.3516 12.8102 11.4721 12.2136 11.7173 11.7049C11.9623 11.1966 12.3107 10.8011 12.7617 10.5231ZM13.0577 11.7589C13.3534 11.3477 13.7883 11.1455 14.3447 11.1455C14.8756 11.1455 15.2892 11.3302 15.5651 11.71C15.8363 12.0833 15.9632 12.6298 15.9632 13.3316C15.9632 14.0037 15.8526 14.5408 15.6194 14.9316L15.5236 15.0921L14.9321 14.0885C14.8623 13.9677 14.7675 13.9125 14.6374 13.9125C14.4856 13.9125 14.3539 13.9598 14.2379 14.0556C14.122 14.1514 14.0742 14.2521 14.0742 14.3604C14.0742 14.4428 14.0934 14.5109 14.1287 14.5683L14.1297 14.5699L14.7531 15.6226L14.5935 15.6492C14.4808 15.668 14.3653 15.6774 14.2471 15.6774C13.7158 15.6774 13.3023 15.491 13.0265 15.1081C12.7555 14.7319 12.6286 14.1812 12.6286 13.4735C12.6286 12.7356 12.7661 12.1585 13.0577 11.7589ZM14.3447 11.3672C13.8489 11.3672 13.4857 11.5433 13.2375 11.8887C12.9853 12.2341 12.8503 12.7572 12.8503 13.4735C12.8503 14.1612 12.9748 14.657 13.2064 14.9785C13.4331 15.2932 13.7734 15.4556 14.2471 15.4556C14.2966 15.4556 14.3453 15.4538 14.3933 15.4502L13.9394 14.6837C13.8805 14.5876 13.8525 14.4787 13.8525 14.3604C13.8525 14.173 13.9407 14.0136 14.0967 13.8847C14.2527 13.7559 14.4344 13.6908 14.6374 13.6908C14.8499 13.6908 15.0157 13.7901 15.1233 13.9764C15.1232 13.9762 15.1234 13.9765 15.1233 13.9764L15.518 14.6459C15.6646 14.3175 15.7415 13.8817 15.7415 13.3316C15.7415 12.65 15.6171 12.1588 15.3858 11.8404C15.1592 11.5285 14.8189 11.3672 14.3447 11.3672Z" fill="#25B7D3"/>
<path d="M15.1233 13.9764C15.0157 13.7901 14.8499 13.6908 14.6374 13.6908C14.4344 13.6908 14.2527 13.7559 14.0967 13.8847C13.9407 14.0136 13.8525 14.173 13.8525 14.3604C13.8525 14.4787 13.8805 14.5876 13.9394 14.6837L14.3933 15.4502C14.3453 15.4538 14.2966 15.4556 14.2471 15.4556C13.7734 15.4556 13.4331 15.2932 13.2064 14.9785C12.9748 14.657 12.8503 14.1612 12.8503 13.4735C12.8503 12.7572 12.9853 12.2341 13.2375 11.8887C13.4857 11.5433 13.8489 11.3672 14.3447 11.3672C14.8189 11.3672 15.1592 11.5285 15.3858 11.8404C15.6171 12.1588 15.7415 12.65 15.7415 13.3316C15.7415 13.8817 15.6646 14.3175 15.518 14.6459L15.1233 13.9764ZM15.1233 13.9764C15.1232 13.9762 15.1234 13.9765 15.1233 13.9764ZM12.8772 10.7124C13.2948 10.4586 13.7885 10.3296 14.3624 10.3296C14.9135 10.3296 15.3838 10.45 15.7776 10.6863C16.1712 10.9225 16.4731 11.2628 16.6832 11.7114L16.6837 11.7124C16.8996 12.1613 17.0097 12.6999 17.0097 13.3316C17.0097 13.876 16.9255 14.3625 16.7597 14.7912C16.5996 15.2142 16.3693 15.5629 16.0698 15.8398L16.0036 15.901L16.4488 16.6436L16.4533 16.65C16.4757 16.682 16.4953 16.7437 16.4953 16.8524C16.4953 16.9607 16.4475 17.0614 16.3316 17.1572C16.2156 17.253 16.0839 17.3003 15.9322 17.3003C15.8635 17.3003 15.8093 17.2851 15.7656 17.2587C15.7218 17.2322 15.6822 17.1905 15.6485 17.128L15.1854 16.3495L15.103 16.3735C14.8298 16.4532 14.5418 16.4933 14.2383 16.4933C13.6812 16.4933 13.2049 16.3728 12.8051 16.1364C12.4115 15.9001 12.1066 15.5597 11.8907 15.111C11.6805 14.662 11.5733 14.1232 11.5733 13.4913C11.5733 12.8361 11.6892 12.2739 11.917 11.8012C12.145 11.3281 12.4651 10.9665 12.8772 10.7124ZM14.3624 10.1079C13.7541 10.1079 13.2191 10.245 12.7617 10.5231C12.3107 10.8011 11.9623 11.1966 11.7173 11.7049C11.4721 12.2136 11.3516 12.8102 11.3516 13.4913C11.3516 14.148 11.463 14.7206 11.6902 15.2056L11.6907 15.2066C11.924 15.6917 12.2581 16.0668 12.6919 16.3271C13.1316 16.5871 13.6484 16.715 14.2383 16.715C14.5313 16.715 14.8126 16.6799 15.082 16.6094L15.4544 17.2353C15.5034 17.3255 15.5683 17.3984 15.6509 17.4484C15.7343 17.4988 15.8294 17.522 15.9322 17.522C16.1352 17.522 16.3168 17.457 16.4728 17.3281C16.6288 17.1992 16.717 17.0398 16.717 16.8524C16.717 16.7264 16.6959 16.6122 16.6373 16.5263L16.2856 15.9402C16.5806 15.6487 16.8075 15.2913 16.9669 14.87C17.144 14.412 17.2314 13.8986 17.2314 13.3316C17.2314 12.6747 17.117 12.102 16.8837 11.6168C16.6563 11.1314 16.3256 10.7566 15.8917 10.4962C15.4577 10.2358 14.9465 10.1079 14.3624 10.1079ZM14.3447 11.1455C13.7883 11.1455 13.3534 11.3477 13.0577 11.7589C12.7661 12.1585 12.6286 12.7356 12.6286 13.4735C12.6286 14.1812 12.7555 14.7319 13.0265 15.1081C13.3023 15.491 13.7158 15.6774 14.2471 15.6774C14.3653 15.6774 14.4808 15.668 14.5935 15.6492L14.7531 15.6226L14.1297 14.5699L14.1287 14.5683C14.0934 14.5109 14.0742 14.4428 14.0742 14.3604C14.0742 14.2521 14.122 14.1514 14.2379 14.0556C14.3539 13.9598 14.4856 13.9125 14.6374 13.9125C14.7675 13.9125 14.8623 13.9677 14.9321 14.0885L15.5236 15.0921L15.6194 14.9316C15.8526 14.5408 15.9632 14.0037 15.9632 13.3316C15.9632 12.6298 15.8363 12.0833 15.5651 11.71C15.2892 11.3302 14.8756 11.1455 14.3447 11.1455Z" stroke="#25B7D3" stroke-width="0.2"/>
</svg>
