<svg width="36" height="36" viewBox="0 0 36 36" fill="none" xmlns="http://www.w3.org/2000/svg">
<rect opacity="0.1" width="36" height="36" rx="5" fill="#FF9900"/>
<path d="M26.8204 28.7091H20.6629C20.1631 28.7083 19.6839 28.5093 19.3305 28.1557C18.977 27.8021 18.7781 27.3227 18.7773 26.8226V19.1333C18.7781 18.6332 18.977 18.1538 19.3305 17.8002C19.6839 17.4466 20.1631 17.2476 20.6629 17.2468H26.8204C27.3202 17.2476 27.7994 17.4466 28.1528 17.8002C28.5063 18.1538 28.7052 18.6332 28.7059 19.1333V26.8226C28.7052 27.3227 28.5063 27.8021 28.1528 28.1557C27.7994 28.5093 27.3202 28.7083 26.8204 28.7091ZM20.6629 18.7747C20.5678 18.7747 20.4767 18.8125 20.4094 18.8797C20.3422 18.947 20.3044 19.0382 20.3044 19.1333V26.8226C20.3044 26.9178 20.3422 27.009 20.4094 27.0762C20.4767 27.1435 20.5678 27.1813 20.6629 27.1813H26.8204C26.9155 27.1813 27.0066 27.1435 27.0739 27.0762C27.1411 27.009 27.1788 26.9178 27.1788 26.8226V19.1333C27.1788 19.0382 27.1411 18.947 27.0739 18.8797C27.0066 18.8125 26.9155 18.7747 26.8204 18.7747H20.6629Z" fill="#FF9900"/>
<path d="M26.823 29H20.6655C20.0892 28.9995 19.5368 28.7702 19.1293 28.3625C18.7218 27.9549 18.4927 27.4021 18.4922 26.8256V19.1363C18.493 18.5601 18.7221 18.0077 19.1293 17.6003C19.5365 17.1929 20.0886 16.9637 20.6645 16.9629H26.822C27.1077 16.9625 27.3906 17.0184 27.6547 17.1274C27.9187 17.2364 28.1587 17.3964 28.361 17.5982C28.5633 17.8001 28.7238 18.0398 28.8335 18.3036C28.9432 18.5675 28.9998 18.8505 29.0002 19.1363V26.8256C28.9999 27.1114 28.9434 27.3944 28.8339 27.6583C28.7243 27.9223 28.5639 28.162 28.3617 28.3639C28.1595 28.5658 27.9196 28.7259 27.6556 28.8351C27.3916 28.9442 27.1086 29.0002 26.823 29ZM20.6655 17.5377C20.2416 17.5382 19.8353 17.7069 19.5355 18.0068C19.2358 18.3066 19.0672 18.7132 19.0667 19.1373V26.8266C19.0672 27.2507 19.2358 27.6572 19.5355 27.9571C19.8353 28.257 20.2416 28.4257 20.6655 28.4262H26.823C27.2468 28.4257 27.6532 28.257 27.9529 27.9571C28.2526 27.6572 28.4213 27.2507 28.4218 26.8266V19.1363C28.4213 18.7122 28.2526 18.3056 27.9529 18.0058C27.6532 17.7059 27.2468 17.5372 26.823 17.5367L20.6655 17.5377ZM26.823 27.4761H20.6655C20.4944 27.4758 20.3305 27.4077 20.2095 27.2867C20.0886 27.1657 20.0205 27.0017 20.0203 26.8305V19.1363C20.0205 18.9651 20.0886 18.8011 20.2095 18.6801C20.3305 18.5591 20.4944 18.491 20.6655 18.4907H26.823C26.994 18.491 27.158 18.5591 27.2789 18.6801C27.3999 18.8011 27.4679 18.9651 27.4682 19.1363V26.8256C27.4687 26.9108 27.4524 26.9952 27.4202 27.074C27.3881 27.1528 27.3406 27.2245 27.2807 27.285C27.2207 27.3454 27.1494 27.3934 27.0709 27.4262C26.9923 27.459 26.9081 27.4759 26.823 27.4761ZM20.6655 19.0704C20.6465 19.0704 20.6282 19.078 20.6148 19.0914C20.6013 19.1049 20.5938 19.1231 20.5938 19.1422V26.8315C20.5938 26.8505 20.6013 26.8688 20.6148 26.8822C20.6282 26.8957 20.6465 26.9032 20.6655 26.9032H26.823C26.842 26.9032 26.8602 26.8957 26.8737 26.8822C26.8871 26.8688 26.8947 26.8505 26.8947 26.8315V19.1363C26.8947 19.1172 26.8871 19.099 26.8737 19.0856C26.8602 19.0721 26.842 19.0645 26.823 19.0645L20.6655 19.0704Z" fill="#FF9900"/>
<path d="M26.8204 15.6896H20.6629C20.1631 15.6888 19.6839 15.4898 19.3305 15.1362C18.977 14.7825 18.7781 14.3032 18.7773 13.8031V9.17041C18.7781 8.67033 18.977 8.19095 19.3305 7.83733C19.6839 7.48372 20.1631 7.28472 20.6629 7.28394H26.8204C27.3202 7.28472 27.7994 7.48372 28.1528 7.83733C28.5063 8.19095 28.7052 8.67033 28.7059 9.17041V13.8031C28.7052 14.3032 28.5063 14.7825 28.1528 15.1362C27.7994 15.4898 27.3202 15.6888 26.8204 15.6896ZM20.6629 8.81178C20.5678 8.81178 20.4767 8.84957 20.4094 8.91682C20.3422 8.98408 20.3044 9.0753 20.3044 9.17041V13.8031C20.3044 13.8982 20.3422 13.9894 20.4094 14.0567C20.4767 14.1239 20.5678 14.1617 20.6629 14.1617H26.8204C26.9155 14.1617 27.0066 14.1239 27.0739 14.0567C27.1411 13.9894 27.1788 13.8982 27.1788 13.8031V9.17041C27.1788 9.0753 27.1411 8.98408 27.0739 8.91682C27.0066 8.84957 26.9155 8.81178 26.8204 8.81178H20.6629Z" fill="#FF9900"/>
<path d="M26.823 15.9804H20.6655C20.0892 15.9799 19.5368 15.7506 19.1293 15.343C18.7218 14.9353 18.4927 14.3826 18.4922 13.806V9.17338C18.493 8.5972 18.7221 8.04485 19.1293 7.63743C19.5365 7.23001 20.0886 7.00078 20.6645 7H26.822C27.1077 6.99961 27.3906 7.05552 27.6547 7.16454C27.9187 7.27355 28.1587 7.43353 28.361 7.63535C28.5633 7.83716 28.7238 8.07686 28.8335 8.34076C28.9432 8.60465 28.9998 8.88758 29.0002 9.17338V13.806C28.9999 14.0918 28.9434 14.3748 28.8339 14.6387C28.7243 14.9027 28.5639 15.1425 28.3617 15.3444C28.1595 15.5463 27.9196 15.7064 27.6556 15.8155C27.3916 15.9246 27.1086 15.9807 26.823 15.9804ZM20.6655 7.57479C20.2416 7.57531 19.8353 7.744 19.5355 8.04387C19.2358 8.34373 19.0672 8.75029 19.0667 9.17436V13.806C19.0672 14.2301 19.2358 14.6367 19.5355 14.9365C19.8353 15.2364 20.2416 15.4051 20.6655 15.4056H26.823C27.2468 15.4051 27.6532 15.2364 27.9529 14.9365C28.2526 14.6367 28.4213 14.2301 28.4218 13.806V9.17338C28.4213 8.7493 28.2526 8.34275 27.9529 8.04288C27.6532 7.74302 27.2468 7.57432 26.823 7.5738L20.6655 7.57479ZM26.823 14.4526H20.6655C20.4944 14.4523 20.3305 14.3842 20.2095 14.2632C20.0886 14.1422 20.0205 13.9782 20.0203 13.807V9.17338C20.0205 9.00225 20.0886 8.83821 20.2095 8.71721C20.3305 8.5962 20.4944 8.52811 20.6655 8.52785H26.823C26.994 8.52811 27.158 8.5962 27.2789 8.71721C27.3999 8.83821 27.4679 9.00225 27.4682 9.17338V13.806C27.4679 13.9772 27.3999 14.1412 27.2789 14.2622C27.158 14.3832 26.994 14.4523 26.823 14.4526ZM20.6645 9.10263C20.6455 9.10263 20.6273 9.11019 20.6138 9.12364C20.6004 9.13709 20.5928 9.15534 20.5928 9.17436V13.806C20.5928 13.8251 20.6004 13.8433 20.6138 13.8568C20.6273 13.8702 20.6455 13.8778 20.6645 13.8778H26.822C26.841 13.8778 26.8592 13.8702 26.8727 13.8568C26.8861 13.8433 26.8937 13.8251 26.8937 13.806V9.17338C26.8937 9.15435 26.8861 9.13611 26.8727 9.12266C26.8592 9.10921 26.841 9.10165 26.822 9.10165L20.6645 9.10263Z" fill="#FF9900"/>
<path d="M15.3243 18.7462H9.1668C8.66696 18.7455 8.18782 18.5464 7.83438 18.1928C7.48093 17.8392 7.28203 17.3598 7.28125 16.8598V9.17041C7.28203 8.67033 7.48093 8.19095 7.83438 7.83733C8.18782 7.48372 8.66696 7.28472 9.1668 7.28394H15.3243C15.8241 7.28472 16.3033 7.48372 16.6567 7.83733C17.0102 8.19095 17.2091 8.67033 17.2099 9.17041V16.8598C17.2091 17.3598 17.0102 17.8392 16.6567 18.1928C16.3033 18.5464 15.8241 18.7455 15.3243 18.7462ZM9.1668 8.81178C9.07173 8.81178 8.98056 8.84957 8.91334 8.91682C8.84611 8.98408 8.80835 9.0753 8.80835 9.17041V16.8598C8.80835 16.9549 8.84611 17.0461 8.91334 17.1133C8.98056 17.1806 9.07173 17.2184 9.1668 17.2184H15.3243C15.4194 17.2184 15.5105 17.1806 15.5778 17.1133C15.645 17.0461 15.6828 16.9549 15.6828 16.8598V9.17041C15.6828 9.0753 15.645 8.98408 15.5778 8.91682C15.5105 8.84957 15.4194 8.81178 15.3243 8.81178H9.1668Z" fill="#FF9900"/>
<path d="M15.3308 19.0371H9.17231C8.59625 19.0363 8.04402 18.8069 7.63677 18.3993C7.22952 17.9917 7.00052 17.4391 7 16.8627V9.17338C7.00078 8.5972 7.2299 8.04485 7.63712 7.63743C8.04434 7.23001 8.59642 7.00078 9.17231 7H15.3298C15.6155 6.99961 15.8984 7.05552 16.1625 7.16454C16.4265 7.27355 16.6666 7.43353 16.8688 7.63535C17.0711 7.83716 17.2316 8.07686 17.3413 8.34076C17.451 8.60465 17.5076 8.88758 17.508 9.17338V16.8627C17.5078 17.1485 17.4512 17.4315 17.3417 17.6954C17.2321 17.9594 17.0717 18.1991 16.8695 18.401C16.6673 18.6029 16.4274 18.763 16.1634 18.8722C15.8994 18.9813 15.6165 19.0373 15.3308 19.0371ZM9.17231 7.5738C8.74845 7.57432 8.34209 7.74302 8.04237 8.04288C7.74265 8.34275 7.57404 8.7493 7.57352 9.17338V16.8627C7.57404 17.2868 7.74265 17.6934 8.04237 17.9932C8.34209 18.2931 8.74845 18.4618 9.17231 18.4623H15.3298C15.7537 18.4618 16.16 18.2931 16.4598 17.9932C16.7595 17.6934 16.9281 17.2868 16.9286 16.8627V9.17338C16.9281 8.7493 16.7595 8.34275 16.4598 8.04288C16.16 7.74302 15.7537 7.57432 15.3298 7.5738H9.17231ZM15.3308 17.5132H9.17231C9.00127 17.5129 8.83731 17.4448 8.71636 17.3238C8.59542 17.2028 8.52736 17.0388 8.5271 16.8676V9.17338C8.52736 9.00225 8.59542 8.83821 8.71636 8.71721C8.83731 8.5962 9.00127 8.52811 9.17231 8.52785H15.3298C15.5009 8.52811 15.6648 8.5962 15.7858 8.71721C15.9067 8.83821 15.9748 9.00225 15.975 9.17338V16.8627C15.9755 16.9478 15.9593 17.0321 15.9272 17.1109C15.895 17.1896 15.8477 17.2613 15.7878 17.3217C15.728 17.3821 15.6568 17.4302 15.5784 17.463C15.5 17.4959 15.4158 17.5129 15.3308 17.5132ZM9.17231 9.10263C9.1533 9.10263 9.13506 9.11019 9.12162 9.12364C9.10817 9.13709 9.10062 9.15534 9.10062 9.17436V16.8637C9.10062 16.8827 9.10817 16.901 9.12162 16.9144C9.13506 16.9279 9.1533 16.9354 9.17231 16.9354H15.3298C15.3392 16.9354 15.3486 16.9336 15.3572 16.93C15.3659 16.9264 15.3738 16.9211 15.3805 16.9144C15.3872 16.9078 15.3924 16.8999 15.396 16.8912C15.3996 16.8825 15.4015 16.8731 15.4015 16.8637V9.17338C15.4015 9.16396 15.3996 9.15463 15.396 9.14593C15.3924 9.13723 15.3872 9.12932 15.3805 9.12266C15.3738 9.116 15.3659 9.11072 15.3572 9.10711C15.3486 9.10351 15.3392 9.10165 15.3298 9.10165L9.17231 9.10263Z" fill="#FF9900"/>
<path d="M15.3243 28.7093H9.1668C8.66696 28.7085 8.18782 28.5095 7.83438 28.1559C7.48093 27.8023 7.28203 27.3229 7.28125 26.8229V22.1902C7.28203 21.6901 7.48093 21.2107 7.83438 20.8571C8.18782 20.5035 8.66696 20.3045 9.1668 20.3037H15.3243C15.8241 20.3045 16.3033 20.5035 16.6567 20.8571C17.0102 21.2107 17.2091 21.6901 17.2099 22.1902V26.8229C17.2091 27.3229 17.0102 27.8023 16.6567 28.1559C16.3033 28.5095 15.8241 28.7085 15.3243 28.7093ZM9.1668 21.8316C9.07173 21.8316 8.98056 21.8693 8.91334 21.9366C8.84611 22.0039 8.80835 22.0951 8.80835 22.1902V26.8229C8.80835 26.918 8.84611 27.0092 8.91334 27.0764C8.98056 27.1437 9.07173 27.1815 9.1668 27.1815H15.3243C15.4194 27.1815 15.5105 27.1437 15.5778 27.0764C15.645 27.0092 15.6828 26.918 15.6828 26.8229V22.1902C15.6828 22.0951 15.645 22.0039 15.5778 21.9366C15.5105 21.8693 15.4194 21.8316 15.3243 21.8316H9.1668Z" fill="#FF9900"/>
<path d="M15.3308 28.9999H9.17231C8.59625 28.9992 8.04402 28.7698 7.63677 28.3622C7.22952 27.9545 7.00052 27.4019 7 26.8256V22.1929C7.00078 21.6167 7.2299 21.0644 7.63712 20.657C8.04434 20.2495 8.59642 20.0203 9.17231 20.0195H15.3298C15.6155 20.0191 15.8984 20.0751 16.1625 20.1841C16.4265 20.2931 16.6666 20.4531 16.8688 20.6549C17.0711 20.8567 17.2316 21.0964 17.3413 21.3603C17.451 21.6242 17.5076 21.9071 17.508 22.1929V26.8256C17.5078 27.1114 17.4512 27.3943 17.3417 27.6583C17.2321 27.9222 17.0717 28.162 16.8695 28.3639C16.6673 28.5658 16.4274 28.7259 16.1634 28.835C15.8994 28.9442 15.6165 29.0002 15.3308 28.9999ZM9.17329 20.5943C8.74943 20.5948 8.34307 20.7635 8.04335 21.0634C7.74363 21.3633 7.57502 21.7698 7.5745 22.1939V26.8266C7.57502 27.2506 7.74363 27.6572 8.04335 27.9571C8.34307 28.2569 8.74943 28.4256 9.17329 28.4261H15.3308C15.7547 28.4256 16.161 28.2569 16.4607 27.9571C16.7605 27.6572 16.9291 27.2506 16.9296 26.8266V22.1929C16.9291 21.7688 16.7605 21.3623 16.4607 21.0624C16.161 20.7625 15.7547 20.5939 15.3308 20.5933L9.17329 20.5943ZM15.3308 27.4721H9.17231C9.00127 27.4718 8.83731 27.4037 8.71636 27.2827C8.59542 27.1617 8.52736 26.9977 8.5271 26.8266V22.1929C8.52736 22.0218 8.59542 21.8577 8.71636 21.7367C8.83731 21.6157 9.00127 21.5476 9.17231 21.5474H15.3298C15.5009 21.5476 15.6648 21.6157 15.7858 21.7367C15.9067 21.8577 15.9748 22.0218 15.975 22.1929V26.8256C15.9748 26.9965 15.9068 27.1604 15.7861 27.2814C15.6654 27.4024 15.5017 27.4716 15.3308 27.4721ZM9.17231 22.1222C9.1533 22.1222 9.13506 22.1297 9.12162 22.1432C9.10817 22.1566 9.10062 22.1749 9.10062 22.1939V26.8266C9.10062 26.8456 9.10817 26.8638 9.12162 26.8773C9.13506 26.8907 9.1533 26.8983 9.17231 26.8983H15.3298C15.3392 26.8983 15.3486 26.8964 15.3572 26.8928C15.3659 26.8892 15.3738 26.8839 15.3805 26.8773C15.3872 26.8706 15.3924 26.8627 15.396 26.854C15.3996 26.8453 15.4015 26.836 15.4015 26.8266V22.1929C15.4015 22.1835 15.3996 22.1742 15.396 22.1655C15.3924 22.1568 15.3872 22.1489 15.3805 22.1422C15.3738 22.1355 15.3659 22.1302 15.3572 22.1266C15.3486 22.123 15.3392 22.1212 15.3298 22.1212L9.17231 22.1222Z" fill="#FF9900"/>
</svg>
