<svg width="36" height="36" viewBox="0 0 36 36" fill="none" xmlns="http://www.w3.org/2000/svg">
<rect opacity="0.1" width="36" height="36" rx="5" fill="#FC8D59"/>
<path fill-rule="evenodd" clip-rule="evenodd" d="M27.5408 20.8697L28.0546 21.3846C28.1379 21.4681 28.1379 21.6042 28.0546 21.6876L27.9856 21.7568C27.7464 21.4533 27.4722 21.1787 27.1693 20.9389L27.2384 20.8697C27.3217 20.7863 27.4575 20.7863 27.5408 20.8697ZM8.64881 10.3669H12.7479V8.94976H8.69125C7.76106 8.94976 7 9.71237 7 10.6445V22.3033C7 23.2354 7.76106 23.998 8.69125 23.998H14.5429V26.6905H11.9685C11.1752 26.6905 10.5262 27.2102 10.5262 27.8453V29H21.5407C20.1406 28.1316 19.2076 26.5789 19.2076 24.8078C19.2076 23.9243 19.4397 23.095 19.8462 22.3779L19.6759 22.2073C19.3891 21.9199 19.325 21.4931 19.4834 21.1433H8.41424V10.602C8.41424 10.4727 8.51979 10.3669 8.64881 10.3669ZM28.7622 23.1669C28.9131 22.9136 29 22.6181 29 22.3033V10.6445C29 9.71237 28.2389 8.94976 27.3087 8.94976H23.1652C23.2223 9.08369 23.2521 9.22914 23.2521 9.38033V10.3669H27.3512C27.4802 10.3669 27.5858 10.4727 27.5858 10.6019V20.0929C27.7594 20.1295 27.9247 20.2152 28.0594 20.3501L28.5732 20.865C28.9428 21.2352 28.9428 21.837 28.5732 22.2072L28.4029 22.3779C28.5447 22.6281 28.6653 22.8919 28.7622 23.1669ZM20.4715 9.59871C20.3209 9.59871 20.1843 9.53726 20.0854 9.43824C19.9867 9.33922 19.9253 9.20231 19.9253 9.05135V7H13.8403C13.6425 7 13.4812 7.16166 13.4812 7.35983V18.0052C13.4812 18.2034 13.6426 18.3651 13.8403 18.3651H22.1596C22.3573 18.3651 22.5187 18.2033 22.5187 18.0052V9.59871H20.4715ZM17.6522 8.78585H18.9409C19.1434 8.78585 19.3076 8.95036 19.3076 9.15327C19.3076 9.35617 19.1434 9.52068 18.9409 9.52068H17.6522C17.4497 9.52068 17.2855 9.35617 17.2855 9.15327C17.2855 8.95036 17.4497 8.78585 17.6522 8.78585ZM16.683 15.3867L15.4923 16.4695C15.3504 16.6154 15.1151 16.6151 14.9719 16.4716L14.4755 15.9742C14.3323 15.8308 14.3323 15.5981 14.4755 15.4547C14.6187 15.3112 14.8508 15.3112 14.9939 15.4547L15.2438 15.7051L16.1903 14.8443C16.3398 14.7079 16.5713 14.7189 16.7073 14.8687C16.8435 15.0184 16.8326 15.2504 16.683 15.3867ZM14.6547 12.2692C14.5115 12.1257 14.5115 11.8931 14.6547 11.7497C14.7979 11.6062 15.03 11.6062 15.1732 11.7497L15.5857 12.163L15.9982 11.7497C16.1413 11.6062 16.3734 11.6062 16.5166 11.7497C16.6598 11.8931 16.6598 12.1258 16.5166 12.2692L16.1041 12.6825L16.5166 13.0959C16.6598 13.2393 16.6598 13.4719 16.5166 13.6154C16.3734 13.7589 16.1413 13.7589 15.9982 13.6154L15.5857 13.2021L15.1732 13.6154C15.03 13.7589 14.7979 13.7589 14.6547 13.6154C14.5115 13.4719 14.5115 13.2393 14.6547 13.0959L15.0672 12.6825L14.6547 12.2692ZM16.683 9.45069L15.4923 10.5335C15.3504 10.6794 15.1151 10.6791 14.9719 10.5356L14.4755 10.0382C14.3323 9.8947 14.3323 9.66209 14.4755 9.51866C14.6187 9.37518 14.8508 9.37518 14.9939 9.51866L15.2438 9.769L16.1903 8.90825C16.3398 8.77189 16.5713 8.78282 16.7073 8.93263C16.8435 9.0824 16.8326 9.31438 16.683 9.45069ZM21.2652 16.5792H17.6521C17.4497 16.5792 17.2855 16.4147 17.2855 16.2118C17.2855 16.0089 17.4497 15.8444 17.6521 15.8444H21.2652C21.4677 15.8444 21.6319 16.0089 21.6319 16.2118C21.6319 16.4147 21.4677 16.5792 21.2652 16.5792ZM21.2652 15.4829H17.6521C17.4497 15.4829 17.2855 15.3184 17.2855 15.1155C17.2855 14.9126 17.4497 14.7481 17.6521 14.7481H21.2652C21.4677 14.7481 21.6319 14.9126 21.6319 15.1155C21.6319 15.3184 21.4677 15.4829 21.2652 15.4829ZM21.2652 13.5981H17.6521C17.4497 13.5981 17.2855 13.4336 17.2855 13.2307C17.2855 13.0278 17.4497 12.8633 17.6521 12.8633H21.2652C21.4677 12.8633 21.6319 13.0278 21.6319 13.2307C21.6319 13.4336 21.4677 13.5981 21.2652 13.5981ZM21.2652 12.5018H17.6521C17.4497 12.5018 17.2855 12.3373 17.2855 12.1344C17.2855 11.9315 17.4497 11.767 17.6521 11.767H21.2652C21.4677 11.767 21.6319 11.9315 21.6319 12.1344C21.6319 12.3373 21.4677 12.5018 21.2652 12.5018ZM21.2652 10.617H17.6521C17.4497 10.617 17.2855 10.4525 17.2855 10.2496C17.2855 10.0467 17.4497 9.88216 17.6521 9.88216H21.2652C21.4677 9.88216 21.6319 10.0467 21.6319 10.2496C21.6319 10.4525 21.4677 10.617 21.2652 10.617ZM20.6587 7.36746V8.86388H22.1521L20.6587 7.36746ZM24.1246 22.1345C22.6512 22.1345 21.4567 23.3313 21.4567 24.8078C21.4567 26.2842 22.6511 27.4811 24.1246 27.4811C25.598 27.4811 26.7924 26.2842 26.7924 24.8078C26.7924 23.3313 25.598 22.1345 24.1246 22.1345ZM24.1246 25.581C23.6984 25.581 23.3529 25.2348 23.3529 24.8078C23.3529 24.5137 23.5168 24.258 23.7579 24.1272V22.9285C23.7579 22.7256 23.9221 22.5611 24.1246 22.5611C24.3271 22.5611 24.4912 22.7256 24.4912 22.9285V24.1272C24.7324 24.258 24.8962 24.5137 24.8962 24.8078C24.8962 25.2349 24.5507 25.581 24.1246 25.581ZM24.1246 20.6156C21.814 20.6156 19.9409 22.4925 19.9409 24.8078C19.9409 27.1231 21.814 29 24.1246 29C26.4351 29 28.3082 27.1231 28.3082 24.8078C28.3082 22.4925 26.4352 20.6156 24.1246 20.6156ZM24.1246 28.2159C22.2463 28.2159 20.7234 26.6899 20.7234 24.8077C20.7234 22.9256 22.2462 21.3997 24.1246 21.3997C26.0029 21.3997 27.5257 22.9256 27.5257 24.8077C27.5257 26.6899 26.0029 28.2159 24.1246 28.2159ZM24.4912 19.653V19.8944C24.3702 19.8854 24.2479 19.8807 24.1246 19.8807C24.0012 19.8807 23.879 19.8854 23.7579 19.8944V19.653H23.2853C23.1401 19.653 23.0214 19.534 23.0214 19.3886V18.9153C23.0214 18.7699 23.1401 18.6509 23.2853 18.6509H24.9639C25.109 18.6509 25.2277 18.7699 25.2277 18.9153V19.3886C25.2277 19.5341 25.109 19.653 24.9639 19.653H24.4912ZM20.1945 21.3846L20.7083 20.8697C20.7916 20.7863 20.9275 20.7863 21.0108 20.8697L21.0798 20.9389C20.7769 21.1786 20.5028 21.4533 20.2636 21.7568L20.1945 21.6876C20.1112 21.6042 20.1112 21.4681 20.1945 21.3846Z" fill="#FC8D59"/>
</svg>
