<svg width="36" height="36" viewBox="0 0 36 36" fill="none" xmlns="http://www.w3.org/2000/svg">
<rect opacity="0.1" width="36" height="36" rx="5" fill="#9F7CE8"/>
<path d="M24.5455 7H11.4545C10.8036 7 10.1792 7.24834 9.71892 7.69039C9.2586 8.13244 9 8.73199 9 9.35714V26.6429C9 27.268 9.2586 27.8676 9.71892 28.3096C10.1792 28.7517 10.8036 29 11.4545 29H24.5455C25.1964 29 25.8208 28.7517 26.2811 28.3096C26.7414 27.8676 27 27.268 27 26.6429V9.35714C27 8.73199 26.7414 8.13244 26.2811 7.69039C25.8208 7.24834 25.1964 7 24.5455 7ZM25.3636 26.6429C25.3636 26.8512 25.2774 27.0511 25.124 27.1984C24.9706 27.3458 24.7625 27.4286 24.5455 27.4286H11.4545C11.2376 27.4286 11.0294 27.3458 10.876 27.1984C10.7226 27.0511 10.6364 26.8512 10.6364 26.6429V9.35714C10.6364 9.14876 10.7226 8.94891 10.876 8.80156C11.0294 8.65421 11.2376 8.57143 11.4545 8.57143H24.5455C24.7625 8.57143 24.9706 8.65421 25.124 8.80156C25.2774 8.94891 25.3636 9.14876 25.3636 9.35714V26.6429ZM17.7627 14.2993C17.8394 14.3723 17.9003 14.4592 17.9418 14.555C17.9834 14.6507 18.0047 14.7534 18.0047 14.8571C18.0047 14.9609 17.9834 15.0636 17.9418 15.1593C17.9003 15.2551 17.8394 15.342 17.7627 15.415L15.3082 17.7721C15.2321 17.8458 15.1416 17.9042 15.0419 17.9441C14.9422 17.984 14.8353 18.0046 14.7273 18.0046C14.6193 18.0046 14.5123 17.984 14.4126 17.9441C14.3129 17.9042 14.2224 17.8458 14.1464 17.7721L12.51 16.2007C12.3559 16.0528 12.2694 15.8521 12.2694 15.6429C12.2694 15.4336 12.3559 15.233 12.51 15.085C12.6641 14.937 12.873 14.8539 13.0909 14.8539C13.3088 14.8539 13.5178 14.937 13.6718 15.085L14.7273 16.1064L16.6009 14.2993C16.677 14.2256 16.7675 14.1672 16.8672 14.1273C16.9669 14.0874 17.0738 14.0669 17.1818 14.0669C17.2898 14.0669 17.3968 14.0874 17.4965 14.1273C17.5962 14.1672 17.6867 14.2256 17.7627 14.2993ZM16.9445 22.4864L15.8809 23.5L16.9445 24.5136C17.0212 24.5866 17.0821 24.6735 17.1236 24.7693C17.1652 24.865 17.1866 24.9677 17.1866 25.0714C17.1866 25.1752 17.1652 25.2778 17.1236 25.3736C17.0821 25.4693 17.0212 25.5562 16.9445 25.6293C16.8685 25.7029 16.778 25.7614 16.6783 25.8013C16.5786 25.8412 16.4716 25.8617 16.3636 25.8617C16.2556 25.8617 16.1487 25.8412 16.049 25.8013C15.9493 25.7614 15.8588 25.7029 15.7827 25.6293L14.7273 24.6079L13.6718 25.6293C13.5958 25.7029 13.5053 25.7614 13.4056 25.8013C13.3059 25.8412 13.1989 25.8617 13.0909 25.8617C12.9829 25.8617 12.876 25.8412 12.7763 25.8013C12.6766 25.7614 12.5861 25.7029 12.51 25.6293C12.4333 25.5562 12.3724 25.4693 12.3309 25.3736C12.2894 25.2778 12.268 25.1752 12.268 25.0714C12.268 24.9677 12.2894 24.865 12.3309 24.7693C12.3724 24.6735 12.4333 24.5866 12.51 24.5136L13.5736 23.5L12.51 22.4864C12.4337 22.4132 12.3732 22.3262 12.3319 22.2305C12.2906 22.1348 12.2694 22.0322 12.2694 21.9286C12.2694 21.825 12.2906 21.7224 12.3319 21.6267C12.3732 21.5309 12.4337 21.444 12.51 21.3707C12.6641 21.2228 12.873 21.1396 13.0909 21.1396C13.1988 21.1396 13.3056 21.16 13.4053 21.1997C13.505 21.2393 13.5955 21.2975 13.6718 21.3707L14.7273 22.3921L15.7827 21.3707C15.859 21.2975 15.9496 21.2393 16.0493 21.1997C16.1489 21.16 16.2558 21.1396 16.3636 21.1396C16.4715 21.1396 16.5784 21.16 16.678 21.1997C16.7777 21.2393 16.8683 21.2975 16.9445 21.3707C17.0208 21.444 17.0813 21.5309 17.1226 21.6267C17.1639 21.7224 17.1852 21.825 17.1852 21.9286C17.1852 22.0322 17.1639 22.1348 17.1226 22.2305C17.0813 22.3262 17.0208 22.4132 16.9445 22.4864ZM22.0909 24.2857C22.0909 24.4941 22.0047 24.694 21.8513 24.8413C21.6978 24.9886 21.4897 25.0714 21.2727 25.0714H19.6364C19.4194 25.0714 19.2113 24.9886 19.0578 24.8413C18.9044 24.694 18.8182 24.4941 18.8182 24.2857C18.8182 24.0773 18.9044 23.8775 19.0578 23.7301C19.2113 23.5828 19.4194 23.5 19.6364 23.5H21.2727C21.4897 23.5 21.6978 23.5828 21.8513 23.7301C22.0047 23.8775 22.0909 24.0773 22.0909 24.2857ZM23.7273 21.9286C23.7273 22.137 23.6411 22.3368 23.4876 22.4842C23.3342 22.6315 23.1261 22.7143 22.9091 22.7143H19.6364C19.4194 22.7143 19.2113 22.6315 19.0578 22.4842C18.9044 22.3368 18.8182 22.137 18.8182 21.9286C18.8182 21.7202 18.9044 21.5203 19.0578 21.373C19.2113 21.2256 19.4194 21.1429 19.6364 21.1429H22.9091C23.1261 21.1429 23.3342 21.2256 23.4876 21.373C23.6411 21.5203 23.7273 21.7202 23.7273 21.9286ZM18.8182 17.2143C18.8182 17.0059 18.9044 16.8061 19.0578 16.6587C19.2113 16.5114 19.4194 16.4286 19.6364 16.4286H21.2727C21.4897 16.4286 21.6978 16.5114 21.8513 16.6587C22.0047 16.8061 22.0909 17.0059 22.0909 17.2143C22.0909 17.4227 22.0047 17.6225 21.8513 17.7699C21.6978 17.9172 21.4897 18 21.2727 18H19.6364C19.4194 18 19.2113 17.9172 19.0578 17.7699C18.9044 17.6225 18.8182 17.4227 18.8182 17.2143ZM23.7273 14.8571C23.7273 15.0655 23.6411 15.2654 23.4876 15.4127C23.3342 15.5601 23.1261 15.6429 22.9091 15.6429H19.6364C19.4194 15.6429 19.2113 15.5601 19.0578 15.4127C18.9044 15.2654 18.8182 15.0655 18.8182 14.8571C18.8182 14.6488 18.9044 14.4489 19.0578 14.3016C19.2113 14.1542 19.4194 14.0714 19.6364 14.0714H22.9091C23.1261 14.0714 23.3342 14.1542 23.4876 14.3016C23.6411 14.4489 23.7273 14.6488 23.7273 14.8571ZM23.7273 10.9286C23.7273 11.137 23.6411 11.3368 23.4876 11.4842C23.3342 11.6315 23.1261 11.7143 22.9091 11.7143H13.0909C12.8739 11.7143 12.6658 11.6315 12.5124 11.4842C12.3589 11.3368 12.2727 11.137 12.2727 10.9286C12.2727 10.7202 12.3589 10.5203 12.5124 10.373C12.6658 10.2256 12.8739 10.1429 13.0909 10.1429H22.9091C23.1261 10.1429 23.3342 10.2256 23.4876 10.373C23.6411 10.5203 23.7273 10.7202 23.7273 10.9286Z" fill="#9F7CE8"/>
</svg>
