<svg width="36" height="36" viewBox="0 0 36 36" fill="none" xmlns="http://www.w3.org/2000/svg">
<rect opacity="0.1" width="36" height="36" rx="5" fill="#0064BB"/>
<path d="M16.2671 28.9902C14.4643 28.9902 14.4294 28.9748 14.3137 28.9233L14.2733 28.9057C14.0042 28.9915 13.7201 29.0192 13.4396 28.9869H12.8197H12.4858C12.0548 28.9869 11.519 28.9869 10.8129 28.9869C10.1581 28.9869 9.46191 28.9869 8.73076 28.9924C8.45832 28.9933 8.19202 28.9111 7.96703 28.7566C7.74203 28.6021 7.56892 28.3826 7.47056 28.1271C7.37219 27.8716 7.35321 27.5921 7.4161 27.3255C7.47899 27.0589 7.62081 26.8178 7.82282 26.6339C7.68513 26.5072 7.57518 26.3531 7.49995 26.1814C7.42472 26.0096 7.38587 25.824 7.38587 25.6363C7.38587 25.4486 7.42472 25.263 7.49995 25.0913C7.57518 24.9195 7.68513 24.7654 7.82282 24.6387C7.62296 24.4545 7.48308 24.2138 7.42153 23.9483C7.35998 23.6828 7.37962 23.4047 7.47788 23.1506C7.57615 22.8965 7.74845 22.6782 7.9722 22.5242C8.19596 22.3703 8.46074 22.2879 8.73185 22.2879H9.74237C8.78818 21.8827 8.00271 21.158 7.51916 20.2369C7.03561 19.3157 6.88373 18.2547 7.08928 17.2337C7.29483 16.2128 7.84516 15.2947 8.64695 14.6353C9.44873 13.9758 10.4526 13.6156 11.4884 13.6156C12.5242 13.6156 13.5281 13.9758 14.3299 14.6353C15.1316 15.2947 15.682 16.2128 15.8875 17.2337C16.0931 18.2547 15.9412 19.3157 15.4576 20.2369C14.9741 21.158 14.1886 21.8827 13.2344 22.2879H13.8237C14.181 22.2885 14.5234 22.4315 14.7761 22.6855C15.0287 22.9396 15.1709 23.284 15.1714 23.6433C15.1718 23.8663 15.1166 24.0859 15.011 24.282H15.5828V23.7585C15.5834 22.5408 15.9323 21.349 16.5879 20.3252C17.2434 19.3015 18.178 18.489 19.2801 17.9847C18.1762 17.4837 17.2398 16.6725 16.5839 15.6487C15.9279 14.6248 15.5803 13.4321 15.5828 12.2141V10.5119C15.3614 10.4991 15.1532 10.402 15.0003 10.2404C14.8475 10.0787 14.7616 9.86467 14.76 9.64163V7.87798C14.76 7.64513 14.852 7.42181 15.0157 7.25716C15.1794 7.0925 15.4015 7 15.633 7H28.127C28.3585 7 28.5806 7.0925 28.7443 7.25716C28.908 7.42181 29 7.64513 29 7.87798V9.64493C28.9975 9.86847 28.9103 10.0826 28.7562 10.2437C28.6021 10.4049 28.3927 10.5008 28.1706 10.5119V12.2141C28.1704 13.4319 27.8212 14.6238 27.1649 15.6472C26.5086 16.6706 25.5731 17.4821 24.4701 17.9847C25.5734 18.4877 26.5092 19.2998 27.1655 20.3238C27.8217 21.3478 28.1707 22.5403 28.1706 23.7585V25.4563C28.393 25.4671 28.6026 25.5637 28.7559 25.726C28.9092 25.8883 28.9943 26.1039 28.9935 26.3277V28.0936C28.9935 28.3264 28.9015 28.5497 28.7378 28.7144C28.574 28.879 28.352 28.9716 28.1204 28.9716C24.2213 28.9716 21.408 28.9836 19.5463 28.988C18.0808 28.988 17.0168 28.9902 16.2671 28.9902ZM15.0077 26.9906C15.1149 27.1868 15.1711 27.4071 15.1711 27.631C15.1711 27.8549 15.1149 28.0751 15.0077 28.2714H19.8093C19.9736 28.2645 20.129 28.1941 20.2428 28.0747C20.3567 27.9554 20.4203 27.7964 20.4203 27.631C20.4203 27.4656 20.3567 27.3066 20.2428 27.1872C20.129 27.0679 19.9736 26.9974 19.8093 26.9906H15.0077ZM8.73076 26.9906C8.56644 26.9974 8.41112 27.0679 8.29726 27.1872C8.1834 27.3066 8.11982 27.4656 8.11982 27.631C8.11982 27.7964 8.1834 27.9554 8.29726 28.0747C8.41112 28.1941 8.56644 28.2645 8.73076 28.2714H13.8226C13.9085 28.2749 13.9941 28.261 14.0745 28.2304C14.1548 28.1999 14.2282 28.1533 14.2902 28.0935C14.3522 28.0336 14.4015 27.9618 14.4352 27.8824C14.4689 27.8029 14.4863 27.7174 14.4863 27.631C14.4863 27.5446 14.4689 27.4591 14.4352 27.3796C14.4015 27.3001 14.3522 27.2283 14.2902 27.1685C14.2282 27.1087 14.1548 27.0621 14.0745 27.0315C13.9941 27.0009 13.9085 26.987 13.8226 26.9906H8.73076ZM15.011 24.9987C15.1099 25.1795 15.1634 25.3817 15.1671 25.588C15.1689 25.6044 15.1689 25.621 15.1671 25.6374C15.1668 25.8618 15.1105 26.0826 15.0034 26.2794H19.805C19.9693 26.2726 20.1246 26.2021 20.2385 26.0828C20.3523 25.9634 20.4159 25.8044 20.4159 25.6391C20.4159 25.4737 20.3523 25.3147 20.2385 25.1953C20.1246 25.076 19.9693 25.0055 19.805 24.9987H15.011ZM8.73076 24.9987C8.56644 25.0055 8.41112 25.076 8.29726 25.1953C8.1834 25.3147 8.11982 25.4737 8.11982 25.6391C8.11982 25.8044 8.1834 25.9634 8.29726 26.0828C8.41112 26.2021 8.56644 26.2726 8.73076 26.2794H13.8226C13.9085 26.283 13.9941 26.2691 14.0745 26.2385C14.1548 26.2079 14.2282 26.1614 14.2902 26.1015C14.3522 26.0417 14.4015 25.9699 14.4352 25.8904C14.4689 25.811 14.4863 25.7255 14.4863 25.6391C14.4863 25.5527 14.4689 25.4671 14.4352 25.3877C14.4015 25.3082 14.3522 25.2364 14.2902 25.1766C14.2282 25.1168 14.1548 25.0702 14.0745 25.0396C13.9941 25.009 13.9085 24.9951 13.8226 24.9987H8.73076ZM20.2873 24.3742C20.509 24.4576 20.7047 24.5986 20.8545 24.7829C21.0042 24.9673 21.1026 25.1883 21.1396 25.4234H27.4689V23.7574C27.4667 22.5222 27.0609 21.322 26.314 20.3414C25.5671 19.3608 24.5205 18.6542 23.3352 18.3304C23.2588 18.3107 23.1913 18.2654 23.1439 18.202C23.0964 18.1385 23.0719 18.0607 23.0744 17.9814C23.0735 17.903 23.0992 17.8266 23.1472 17.7647C23.1952 17.7029 23.2626 17.6593 23.3385 17.6412C24.524 17.318 25.5707 16.6113 26.317 15.6302C27.0633 14.6491 27.4678 13.4483 27.4679 12.213V10.5514H16.2922V12.2141C16.292 13.45 16.6964 14.6515 17.4429 15.6332C18.1895 16.6149 19.2366 17.3221 20.4226 17.6456C20.498 17.6635 20.565 17.7068 20.6127 17.7683C20.6603 17.8297 20.6856 17.9057 20.6845 17.9836C20.687 18.0632 20.6624 18.1413 20.6148 18.2049C20.5671 18.2686 20.4994 18.314 20.4226 18.3337C19.2372 18.6567 18.1906 19.3632 17.4442 20.344C16.6979 21.3249 16.2934 22.5256 16.2933 23.7607V24.2853H17.5373C17.4647 24.2303 17.4078 24.1569 17.3724 24.0727C17.3369 23.9886 17.3242 23.8964 17.3354 23.8057C17.3366 23.7926 17.3366 23.7793 17.3354 23.7662C17.3232 23.0178 17.4945 22.2779 17.8341 21.6118C18.1126 21.0889 18.4965 20.6303 18.9614 20.2652C19.5313 19.8199 20.1828 19.4917 20.8788 19.2995L20.9181 19.2885C21.0666 19.2483 21.1996 19.1639 21.2997 19.0464C21.3998 18.9289 21.4623 18.7838 21.479 18.63C21.5161 18.2863 21.535 17.9408 21.5357 17.5951C21.535 17.3859 21.4658 17.1827 21.3388 17.0171C21.2117 16.8514 21.034 16.7325 20.8329 16.6787C20.738 16.6403 20.6441 16.603 20.5383 16.5623C19.457 16.2415 18.5377 15.5187 17.9673 14.5408C17.9248 14.4668 17.9024 14.3828 17.9024 14.2973C17.9023 14.2118 17.9247 14.1278 17.9671 14.0537C18.0096 13.9797 18.0707 13.9182 18.1442 13.8754C18.2178 13.8326 18.3013 13.81 18.3863 13.8099H25.3704C25.4561 13.8093 25.5403 13.8319 25.6143 13.8751C25.6884 13.9183 25.7496 13.9807 25.7917 14.0557C25.8342 14.1282 25.8566 14.2108 25.8566 14.2949C25.8566 14.3791 25.8342 14.4617 25.7917 14.5342C25.1925 15.567 24.212 16.32 23.0635 16.6293C22.861 16.6835 22.6819 16.8035 22.5543 16.9706C22.4266 17.1377 22.3574 17.3426 22.3574 17.5534C22.3589 17.9201 22.38 18.2864 22.4207 18.6508C22.4371 18.8041 22.499 18.9488 22.5982 19.0663C22.6975 19.1837 22.8295 19.2684 22.9773 19.3093C23.7121 19.4959 24.3915 19.8577 24.9579 20.364C25.3986 20.7701 25.7496 21.2648 25.9881 21.816C26.2692 22.4617 26.4176 23.1579 26.4246 23.8628C26.4246 23.8792 26.4246 23.888 26.4246 23.8902C26.4243 24.019 26.3733 24.1424 26.2826 24.2333C26.192 24.3242 26.0692 24.3753 25.9412 24.3753L20.2873 24.3742ZM8.73185 23.0013C8.56283 23.0013 8.40073 23.0688 8.28121 23.189C8.16169 23.3092 8.09455 23.4722 8.09455 23.6422C8.09455 23.8122 8.16169 23.9752 8.28121 24.0954C8.40073 24.2156 8.56283 24.2831 8.73185 24.2831H13.8226C13.9063 24.2831 13.9892 24.2665 14.0665 24.2343C14.1438 24.2021 14.2141 24.1549 14.2733 24.0954C14.3324 24.0359 14.3794 23.9652 14.4114 23.8875C14.4434 23.8097 14.4599 23.7264 14.4599 23.6422C14.4599 23.558 14.4434 23.4747 14.4114 23.3969C14.3794 23.3192 14.3324 23.2485 14.2733 23.189C14.2141 23.1295 14.1438 23.0823 14.0665 23.05C13.9892 23.0178 13.9063 23.0013 13.8226 23.0013H8.73185ZM10.5063 18H10.5892C10.5892 18.1559 10.5892 18.315 10.5892 18.4785C10.5778 18.8368 10.5902 19.1953 10.6263 19.5519C10.6919 19.9021 10.8753 20.2189 11.1458 20.4491C11.4162 20.6794 11.7572 20.809 12.1115 20.8162H12.1202C12.3381 20.8181 12.5538 20.7732 12.7529 20.6844C12.952 20.5956 13.13 20.4651 13.2748 20.3015C13.4289 20.1259 13.5444 19.9196 13.6137 19.696C13.6831 19.4725 13.7049 19.2368 13.6775 19.0042C13.6812 18.9102 13.6659 18.8164 13.6325 18.7285C13.5991 18.6406 13.5483 18.5604 13.4832 18.4928C13.4131 18.4227 13.3298 18.3672 13.2382 18.3295C13.1466 18.2918 13.0485 18.2727 12.9496 18.2733C12.7986 18.2708 12.6508 18.3179 12.5287 18.4074C12.4066 18.4969 12.3169 18.624 12.273 18.7694C12.2448 18.8554 12.2339 18.9462 12.2411 19.0364C12.2482 19.1267 12.2731 19.2146 12.3145 19.2951C12.3977 19.4609 12.5429 19.5869 12.7183 19.6452C12.6597 19.7419 12.5773 19.8218 12.479 19.8772C12.3808 19.9326 12.27 19.9615 12.1573 19.9612C12.0611 19.9608 11.966 19.9412 11.8774 19.9035C11.7888 19.8659 11.7085 19.8109 11.6412 19.7417C11.574 19.6723 11.5213 19.59 11.4865 19.4997C11.4516 19.4094 11.4352 19.3129 11.4382 19.2161V18.0022H12.129H12.2708C12.5295 18.0022 12.7761 17.9583 12.8361 17.6368C12.8532 17.5343 12.8322 17.4291 12.777 17.3412C12.7219 17.2533 12.6365 17.189 12.5371 17.1605C12.4588 17.1447 12.3791 17.1374 12.2992 17.1385H11.4393C11.4393 17.0112 11.4393 16.8795 11.4393 16.7566C11.4393 16.5239 11.4393 16.2836 11.4273 16.0443C11.4006 15.8039 11.287 15.5817 11.1082 15.4198C10.9294 15.258 10.6977 15.1678 10.4571 15.1663H10.3917C10.1415 15.1815 9.90661 15.2922 9.73498 15.4758C9.56335 15.6594 9.46801 15.9021 9.46846 16.1541C9.46803 16.2101 9.47859 16.2656 9.49954 16.3175C9.52049 16.3694 9.55141 16.4167 9.59054 16.4565C9.62967 16.4964 9.67623 16.5281 9.72757 16.5498C9.7789 16.5716 9.83399 16.5829 9.88969 16.5832C9.9984 16.5842 10.1033 16.543 10.1826 16.4682C10.2619 16.3934 10.3094 16.2907 10.3153 16.1815C10.3207 16.0806 10.3709 16.0224 10.4517 16.0224H10.4812C10.5108 16.0267 10.538 16.0414 10.5579 16.0639C10.5779 16.0864 10.5893 16.1152 10.5903 16.1453C10.5903 16.3725 10.5903 16.604 10.5903 16.8279V16.8806C10.5903 16.9655 10.5903 17.05 10.5903 17.1341H10.4812H10.4692H10.3415C10.0687 17.1341 9.7751 17.1682 9.75001 17.5731C9.75198 17.6848 9.79702 17.7912 9.87562 17.8701C9.95423 17.9489 10.0602 17.994 10.1712 17.9957H10.5052L10.5063 18Z" fill="#0064BB"/>
</svg>
