<svg width="36" height="36" viewBox="0 0 36 36" fill="none" xmlns="http://www.w3.org/2000/svg">
<rect opacity="0.1" width="36" height="36" rx="5" fill="#8A5BA4"/>
<path d="M24.173 20.7483C23.3175 20.7483 22.4812 20.4986 21.7699 20.0308C21.0585 19.563 20.5042 18.898 20.1768 18.1201C19.8495 17.3421 19.7639 16.4861 19.9308 15.6602C20.0978 14.8344 20.5099 14.0758 21.1149 13.4805C21.7199 12.8851 22.4907 12.4797 23.3298 12.3156C24.1689 12.1514 25.0386 12.2359 25.8289 12.5582C26.6193 12.8806 27.2947 13.4264 27.7699 14.1266C28.2451 14.8269 28.4986 15.6501 28.4984 16.4921C28.4968 17.6206 28.0405 18.7024 27.2297 19.5003C26.4188 20.2982 25.3196 20.747 24.173 20.7483ZM24.173 12.9315C23.4577 12.9315 22.7585 13.1402 22.1637 13.5314C21.569 13.9225 21.1054 14.4784 20.8317 15.1289C20.5579 15.7793 20.4863 16.4951 20.6259 17.1856C20.7654 17.8761 21.1099 18.5103 21.6157 19.0082C22.1215 19.506 22.7659 19.845 23.4674 19.9824C24.169 20.1197 24.8962 20.0492 25.557 19.7798C26.2179 19.5104 26.7827 19.0541 27.1801 18.4687C27.5775 17.8834 27.7896 17.1951 27.7896 16.4911C27.7883 15.5474 27.4069 14.6428 26.7289 13.9755C26.0509 13.3082 25.1318 12.9328 24.173 12.9315Z" fill="#8A5BA4"/>
<path d="M24.1728 21.2403C23.2185 21.2403 22.2855 20.9617 21.492 20.4398C20.6985 19.9179 20.08 19.1762 19.7148 18.3083C19.3497 17.4404 19.2542 16.4855 19.4404 15.5642C19.6267 14.643 20.0864 13.7967 20.7613 13.1326C21.4362 12.4685 22.296 12.0162 23.2321 11.8331C24.1682 11.6499 25.1384 11.7441 26.02 12.1037C26.9017 12.4633 27.6552 13.0722 28.1853 13.8533C28.7154 14.6345 28.9982 15.5528 28.998 16.4921C28.9964 17.7511 28.4875 18.958 27.5829 19.8482C26.6783 20.7383 25.452 21.239 24.1728 21.2403ZM24.1728 13.4234C23.5564 13.4234 22.9538 13.6033 22.4412 13.9404C21.9287 14.2775 21.5292 14.7566 21.2933 15.3171C21.0574 15.8777 20.9956 16.4945 21.1159 17.0896C21.2362 17.6847 21.533 18.2313 21.9689 18.6603C22.4048 19.0893 22.9602 19.3815 23.5648 19.4999C24.1694 19.6182 24.7961 19.5575 25.3656 19.3253C25.9351 19.0931 26.4219 18.6999 26.7644 18.1954C27.1068 17.691 27.2896 17.0978 27.2896 16.4911C27.2886 15.6778 26.9599 14.8981 26.3756 14.3231C25.7913 13.748 24.9991 13.4244 24.1728 13.4234Z" fill="#8A5BA4"/>
<path d="M24.1781 18.6302C24.0842 18.6302 23.9942 18.5935 23.9279 18.5282C23.8615 18.4629 23.8242 18.3743 23.8242 18.2819V14.6957C23.8242 14.6033 23.8615 14.5147 23.9279 14.4494C23.9942 14.3841 24.0842 14.3474 24.1781 14.3474C24.2719 14.3474 24.362 14.3841 24.4283 14.4494C24.4947 14.5147 24.532 14.6033 24.532 14.6957V18.2819C24.5321 18.3277 24.523 18.3731 24.5053 18.4154C24.4875 18.4577 24.4615 18.4961 24.4286 18.5285C24.3957 18.5609 24.3566 18.5865 24.3137 18.604C24.2707 18.6214 24.2246 18.6304 24.1781 18.6302Z" fill="#8A5BA4"/>
<path d="M24.1779 19.1224C23.9516 19.1221 23.7346 19.0335 23.5746 18.876C23.4145 18.7185 23.3245 18.5049 23.3242 18.2822V14.6959C23.3242 14.4731 23.4142 14.2594 23.5743 14.1018C23.7344 13.9442 23.9515 13.8557 24.1779 13.8557C24.4043 13.8557 24.6214 13.9442 24.7815 14.1018C24.9416 14.2594 25.0316 14.4731 25.0316 14.6959V18.2822C25.0317 18.3925 25.0097 18.5019 24.9669 18.6039C24.924 18.7059 24.8611 18.7985 24.7818 18.8766C24.7025 18.9546 24.6084 19.0165 24.5047 19.0587C24.4011 19.1009 24.29 19.1225 24.1779 19.1224Z" fill="#8A5BA4"/>
<path d="M25.9897 16.8357H22.3461C22.2522 16.8357 22.1622 16.799 22.0958 16.7337C22.0295 16.6684 21.9922 16.5798 21.9922 16.4875C21.9922 16.3951 22.0295 16.3065 22.0958 16.2412C22.1622 16.1759 22.2522 16.1392 22.3461 16.1392H25.9897C26.0835 16.1392 26.1735 16.1759 26.2399 16.2412C26.3063 16.3065 26.3435 16.3951 26.3435 16.4875C26.3435 16.5798 26.3063 16.6684 26.2399 16.7337C26.1735 16.799 26.0835 16.8357 25.9897 16.8357Z" fill="#8A5BA4"/>
<path d="M25.9895 17.3277H22.3459C22.1195 17.3277 21.9023 17.2392 21.7422 17.0816C21.5821 16.924 21.4922 16.7103 21.4922 16.4874C21.4922 16.2646 21.5821 16.0509 21.7422 15.8933C21.9023 15.7357 22.1195 15.6472 22.3459 15.6472H25.9895C26.2159 15.6472 26.433 15.7357 26.5931 15.8933C26.7532 16.0509 26.8432 16.2646 26.8432 16.4874C26.8432 16.7103 26.7532 16.924 26.5931 17.0816C26.433 17.2392 26.2159 17.3277 25.9895 17.3277Z" fill="#8A5BA4"/>
<path d="M24.1755 28.5077H9.29513C8.82127 28.5072 8.36696 28.3217 8.03189 27.9919C7.69682 27.6621 7.50834 27.215 7.50781 26.7486V24.9245C7.50808 24.4579 7.69644 24.0105 8.03154 23.6805C8.36664 23.3505 8.8211 23.1648 9.29513 23.1643H24.1795C24.2733 23.1643 24.3633 23.201 24.4297 23.2663C24.4961 23.3316 24.5333 23.4202 24.5333 23.5126V28.1594C24.5335 28.2056 24.5243 28.2512 24.5063 28.2938C24.4883 28.3364 24.4619 28.375 24.4286 28.4074C24.3953 28.4398 24.3557 28.4654 24.3123 28.4826C24.2688 28.4998 24.2223 28.5084 24.1755 28.5077ZM9.29513 23.8609C9.00889 23.8612 8.73445 23.9732 8.53204 24.1724C8.32964 24.3716 8.21581 24.6417 8.21554 24.9235V26.7476C8.21581 27.0293 8.32964 27.2994 8.53204 27.4987C8.73445 27.6979 9.00889 27.8099 9.29513 27.8102H23.8216V23.8609H9.29513Z" fill="#8A5BA4"/>
<path d="M24.1753 28.9999H9.29494C8.6886 28.9991 8.10732 28.7617 7.67857 28.3397C7.24983 27.9177 7.00861 27.3456 7.00781 26.7488V24.9247C7.00834 24.3277 7.24944 23.7554 7.67822 23.3332C8.107 22.9109 8.68843 22.6734 9.29494 22.6726H24.1793C24.4056 22.6729 24.6226 22.7615 24.7826 22.919C24.9427 23.0765 25.0327 23.2901 25.033 23.5128V28.1597C25.0331 28.2701 25.0111 28.3794 24.9683 28.4814C24.9254 28.5834 24.8625 28.6761 24.7832 28.7541C24.7039 28.8321 24.6098 28.894 24.5061 28.9362C24.4025 28.9784 24.2914 29 24.1793 28.9999H24.1753ZM9.25996 24.354C9.11188 24.3621 8.97254 24.4256 8.8705 24.5315C8.76846 24.6374 8.71145 24.7778 8.71117 24.9237V26.7478C8.71143 26.8991 8.7726 27.0441 8.88127 27.151C8.98994 27.258 9.13726 27.3182 9.29095 27.3185H23.3216V24.3531L9.25996 24.354Z" fill="#8A5BA4"/>
<path d="M7.85387 25.2762C7.76001 25.2762 7.67001 25.2395 7.60364 25.1742C7.53728 25.1089 7.5 25.0203 7.5 24.9279V9.25087C7.50026 9.01959 7.5468 8.79063 7.63697 8.57706C7.72713 8.36349 7.85915 8.16949 8.02549 8.00613C8.19183 7.84278 8.38923 7.71327 8.60642 7.62501C8.82361 7.53674 9.05634 7.49144 9.29132 7.4917H24.1757C24.2695 7.4917 24.3595 7.5284 24.4259 7.59371C24.4922 7.65903 24.5295 7.74762 24.5295 7.83999C24.5295 7.93236 24.4922 8.02095 24.4259 8.08627C24.3595 8.15159 24.2695 8.18828 24.1757 8.18828H9.29132C9.00508 8.18854 8.73063 8.30058 8.52823 8.49979C8.32582 8.69901 8.21199 8.96913 8.21173 9.25087V24.9279C8.21186 24.9737 8.2028 25.019 8.18506 25.0614C8.16733 25.1037 8.14126 25.1421 8.10838 25.1745C8.07549 25.2069 8.03643 25.2325 7.99344 25.25C7.95045 25.2674 7.90437 25.2763 7.85786 25.2762H7.85387Z" fill="#8A5BA4"/>
<path d="M7.85368 25.7684C7.62735 25.7681 7.41037 25.6795 7.25033 25.522C7.09029 25.3645 7.00026 25.1509 7 24.9282V9.2511C7.00079 8.65363 7.24256 8.08091 7.67218 7.65881C8.10179 7.2367 8.6841 6.99974 9.29113 7H24.1755C24.4019 7 24.619 7.08852 24.7791 7.2461C24.9392 7.40367 25.0292 7.61739 25.0292 7.84023C25.0292 8.06307 24.9392 8.27679 24.7791 8.43436C24.619 8.59193 24.4019 8.68046 24.1755 8.68046H9.29113C9.13744 8.68072 8.99013 8.74092 8.88146 8.84788C8.77278 8.95484 8.71161 9.09984 8.71135 9.2511V24.9282C8.71148 25.0385 8.68949 25.1478 8.64664 25.2498C8.60378 25.3518 8.5409 25.4445 8.46161 25.5226C8.38231 25.6006 8.28815 25.6625 8.18452 25.7047C8.08089 25.7469 7.96982 25.7685 7.85767 25.7684H7.85368Z" fill="#8A5BA4"/>
<path d="M24.1781 12.9306C24.0842 12.9306 23.9942 12.8939 23.9279 12.8285C23.8615 12.7632 23.8242 12.6746 23.8242 12.5823V7.83999C23.8242 7.74762 23.8615 7.65903 23.9279 7.59371C23.9942 7.52839 24.0842 7.4917 24.1781 7.4917C24.2719 7.4917 24.362 7.52839 24.4283 7.59371C24.4947 7.65903 24.532 7.74762 24.532 7.83999V12.5823C24.5321 12.628 24.523 12.6734 24.5053 12.7157C24.4875 12.758 24.4615 12.7965 24.4286 12.8288C24.3957 12.8612 24.3566 12.8869 24.3137 12.9043C24.2707 12.9218 24.2246 12.9307 24.1781 12.9306Z" fill="#8A5BA4"/>
<path d="M24.1779 13.4227C23.9516 13.4225 23.7346 13.3339 23.5746 13.1763C23.4145 13.0188 23.3245 12.8053 23.3242 12.5825V7.84023C23.3242 7.61739 23.4142 7.40367 23.5743 7.2461C23.7344 7.08852 23.9515 7 24.1779 7C24.4043 7 24.6214 7.08852 24.7815 7.2461C24.9416 7.40367 25.0316 7.61739 25.0316 7.84023V12.5825C25.0317 12.6929 25.0097 12.8022 24.9669 12.9042C24.924 13.0062 24.8611 13.0989 24.7818 13.1769C24.7025 13.255 24.6084 13.3169 24.5047 13.359C24.4011 13.4012 24.29 13.4229 24.1779 13.4227Z" fill="#8A5BA4"/>
<path d="M24.1781 23.8657C24.0842 23.8657 23.9942 23.829 23.9279 23.7637C23.8615 23.6984 23.8242 23.6098 23.8242 23.5175V20.4005C23.8242 20.3082 23.8615 20.2196 23.9279 20.1543C23.9942 20.0889 24.0842 20.0522 24.1781 20.0522C24.2719 20.0522 24.362 20.0889 24.4283 20.1543C24.4947 20.2196 24.532 20.3082 24.532 20.4005V23.5175C24.5321 23.5632 24.523 23.6086 24.5053 23.6509C24.4875 23.6932 24.4615 23.7317 24.4286 23.764C24.3957 23.7964 24.3566 23.822 24.3137 23.8395C24.2707 23.8569 24.2246 23.8659 24.1781 23.8657Z" fill="#8A5BA4"/>
<path d="M24.1779 24.3579C23.9516 24.3577 23.7346 24.2691 23.5746 24.1115C23.4145 23.954 23.3245 23.7405 23.3242 23.5177V20.4008C23.3242 20.1779 23.4142 19.9642 23.5743 19.8067C23.7344 19.6491 23.9515 19.5605 24.1779 19.5605C24.4043 19.5605 24.6214 19.6491 24.7815 19.8067C24.9416 19.9642 25.0316 20.1779 25.0316 20.4008V23.5177C25.0317 23.6281 25.0097 23.7374 24.9669 23.8394C24.924 23.9414 24.8611 24.0341 24.7818 24.1121C24.7025 24.1902 24.6084 24.252 24.5047 24.2942C24.4011 24.3364 24.29 24.3581 24.1779 24.3579Z" fill="#8A5BA4"/>
<path d="M24.1763 25.7444H19.639C19.5926 25.7444 19.5465 25.7354 19.5036 25.7179C19.4607 25.7004 19.4217 25.6748 19.3888 25.6424C19.3559 25.6101 19.3299 25.5717 19.3121 25.5294C19.2943 25.4872 19.2852 25.4419 19.2852 25.3961C19.2852 25.3504 19.2943 25.3051 19.3121 25.2628C19.3299 25.2206 19.3559 25.1822 19.3888 25.1499C19.4217 25.1175 19.4607 25.0919 19.5036 25.0744C19.5465 25.0569 19.5926 25.0479 19.639 25.0479H24.1763C24.2228 25.0479 24.2688 25.0569 24.3117 25.0744C24.3547 25.0919 24.3937 25.1175 24.4265 25.1499C24.4594 25.1822 24.4854 25.2206 24.5032 25.2628C24.521 25.3051 24.5302 25.3504 24.5302 25.3961C24.5302 25.4419 24.521 25.4872 24.5032 25.5294C24.4854 25.5717 24.4594 25.6101 24.4265 25.6424C24.3937 25.6748 24.3547 25.7004 24.3117 25.7179C24.2688 25.7354 24.2228 25.7444 24.1763 25.7444Z" fill="#8A5BA4"/>
<path d="M24.1761 26.2364H19.6388C19.4124 26.2364 19.1953 26.1478 19.0352 25.9903C18.8751 25.8327 18.7852 25.619 18.7852 25.3961C18.7852 25.1733 18.8751 24.9596 19.0352 24.802C19.1953 24.6444 19.4124 24.5559 19.6388 24.5559H24.1761C24.4025 24.5559 24.6197 24.6444 24.7797 24.802C24.9398 24.9596 25.0298 25.1733 25.0298 25.3961C25.0298 25.619 24.9398 25.8327 24.7797 25.9903C24.6197 26.1478 24.4025 26.2364 24.1761 26.2364Z" fill="#8A5BA4"/>
<path d="M18.0806 25.7444H17.057C17.0105 25.7444 16.9645 25.7354 16.9216 25.7179C16.8786 25.7004 16.8396 25.6748 16.8068 25.6424C16.7739 25.6101 16.7478 25.5717 16.7301 25.5294C16.7123 25.4872 16.7031 25.4419 16.7031 25.3961C16.7031 25.3504 16.7123 25.3051 16.7301 25.2628C16.7478 25.2206 16.7739 25.1822 16.8068 25.1499C16.8396 25.1175 16.8786 25.0919 16.9216 25.0744C16.9645 25.0569 17.0105 25.0479 17.057 25.0479H18.0796C18.1735 25.0479 18.2635 25.0845 18.3298 25.1499C18.3962 25.2152 18.4335 25.3038 18.4335 25.3961C18.4335 25.4885 18.3962 25.5771 18.3298 25.6424C18.2635 25.7077 18.1745 25.7444 18.0806 25.7444Z" fill="#8A5BA4"/>
<path d="M18.0804 26.2366H17.0568C16.8304 26.2366 16.6133 26.1481 16.4532 25.9905C16.2931 25.8329 16.2031 25.6192 16.2031 25.3964C16.2031 25.1735 16.2931 24.9598 16.4532 24.8022C16.6133 24.6447 16.8304 24.5562 17.0568 24.5562H18.0794C18.3058 24.5562 18.523 24.6447 18.683 24.8022C18.8431 24.9598 18.9331 25.1735 18.9331 25.3964C18.9331 25.6192 18.8431 25.8329 18.683 25.9905C18.523 26.1481 18.3068 26.2366 18.0804 26.2366Z" fill="#8A5BA4"/>
</svg>
