<svg width="37" height="36" viewBox="0 0 37 36" fill="none" xmlns="http://www.w3.org/2000/svg">
<g id="Master Class">
<g id="Group 35725">
<rect id="Rectangle 21057" opacity="0.1" x="0.533081" width="36.0957" height="36" rx="5" fill="#2496C1"/>
<g id="Group">
<g id="Group_2">
<path id="Vector" d="M23.8559 26.0952H21.5284V24.2606H15.5969V26.0952H13.2318C12.4059 26.0952 11.7677 26.7691 11.7677 27.5554C11.7677 28.3791 12.4434 29.0156 13.2318 29.0156H23.8184C24.6443 29.0156 25.2825 28.3417 25.2825 27.5554C25.32 26.7317 24.6818 26.0952 23.8559 26.0952Z" fill="#2496C1"/>
</g>
<g id="Group_3">
<path id="Vector_2" d="M28.7354 7H8.3881C7.37449 7 6.54858 7.82371 6.54858 8.83463V21.6771C6.54858 22.688 7.37449 23.5117 8.3881 23.5117H28.7729C29.7865 23.5117 30.6124 22.688 30.6124 21.6771V8.83463C30.5749 7.82371 29.749 7 28.7354 7ZM29.8241 20.2543H15.2581L15.183 17.9704C15.183 17.4462 15.596 17.0343 16.1216 17.0343C16.6471 17.0343 17.1727 16.8471 17.6232 16.5101L20.8142 14.0764C20.9644 13.9641 21.0019 13.7395 20.8893 13.5523L20.7016 13.2902L24.1553 11.0062C24.3431 10.8939 24.3806 10.6693 24.268 10.4821C24.2304 10.4072 24.1553 10.3697 24.0803 10.3323H27.9845C28.1722 10.3323 28.3599 10.1825 28.3599 9.95788C28.3599 9.73323 28.1722 9.58346 27.9845 9.58346H17.8484C17.6232 9.58346 17.473 9.73323 17.473 9.95788C17.473 10.1825 17.6232 10.3323 17.8484 10.3323H23.8175C23.7799 10.3323 23.7799 10.3323 23.7424 10.3697L20.2511 12.6537L20.0634 12.3916C19.9507 12.2418 19.7255 12.1669 19.5378 12.2793L15.5584 14.8627H12.8555C12.7053 14.8627 12.5552 14.975 12.5176 15.1248L12.0296 16.4727H11.8794L11.3914 15.1248C11.3538 14.975 11.2037 14.8627 11.0535 14.8627C9.77712 14.8627 8.76351 15.8736 8.76351 17.1466V20.2543H7.29941V8.83463C7.29941 8.23557 7.78744 7.74883 8.3881 7.74883H28.7729C29.3736 7.74883 29.8616 8.23557 29.8616 8.83463V20.2543H29.8241Z" fill="#2496C1"/>
</g>
<g id="Group_4">
<path id="Vector_3" d="M27.9852 12.0546H23.2175C22.9922 12.0546 22.842 12.2043 22.842 12.429C22.842 12.6536 22.9922 12.8034 23.2175 12.8034H27.9852C28.2104 12.8034 28.3606 12.6536 28.3606 12.429C28.3606 12.2043 28.2104 12.0546 27.9852 12.0546Z" fill="#2496C1"/>
</g>
<g id="Group_5">
<path id="Vector_4" d="M27.9848 14.4882H21.3776C21.1524 14.4882 21.0022 14.6379 21.0022 14.8626C21.0022 15.0872 21.1524 15.237 21.3776 15.237H28.0224C28.2476 15.237 28.3978 15.0872 28.3978 14.8626C28.3602 14.6379 28.2101 14.4882 27.9848 14.4882Z" fill="#2496C1"/>
</g>
<g id="Group_6">
<path id="Vector_5" d="M27.9854 16.8846H18.45C18.2247 16.8846 18.0746 17.0343 18.0746 17.259C18.0746 17.4836 18.2247 17.6334 18.45 17.6334H27.9854C28.2107 17.6334 28.3608 17.4836 28.3608 17.259C28.3608 17.0718 28.2107 16.8846 27.9854 16.8846Z" fill="#2496C1"/>
</g>
<g id="Group_7">
<path id="Vector_6" d="M11.9919 10.2574C10.9032 10.2574 10.0398 11.1186 10.0398 12.2044C10.0398 13.2902 10.9032 14.1514 11.9919 14.1514C13.0806 14.1514 13.9441 13.2902 13.9441 12.2044C13.9441 11.1186 13.0806 10.2574 11.9919 10.2574Z" fill="#2496C1"/>
</g>
</g>
</g>
</g>
</svg>
