<svg width="28" height="28" viewBox="0 0 28 28" fill="none" xmlns="http://www.w3.org/2000/svg">
<g id="Group 35317">
<rect id="Rectangle 4" width="28" height="28" rx="14" fill="#55347B"/>
<path id="Icon material-notifications-active" d="M8.95362 6.30041L7.44754 4.81722C6.16137 5.77694 5.10581 7.00405 4.35599 8.41123C3.60618 9.81841 3.18054 11.3711 3.10938 12.9587H5.21543C5.29008 11.6435 5.66497 10.3618 6.31218 9.20899C6.9594 8.05621 7.86228 7.06202 8.95362 6.30041ZM22.0025 12.9587H24.1094C24.0334 11.3721 23.6057 9.82106 22.8563 8.41458C22.1068 7.0081 21.0538 5.78024 19.7712 4.81722L18.2741 6.30041C19.3611 7.06577 20.2601 8.06115 20.9053 9.21347C21.5505 10.3658 21.9254 11.6458 22.0025 12.9595V12.9587ZM19.9267 13.4746C19.9267 10.2905 18.1996 7.62481 15.1875 6.91948V6.2198C15.1875 5.8072 15.021 5.41149 14.7248 5.11973C14.4285 4.82797 14.0267 4.66406 13.6077 4.66406C13.1888 4.66406 12.7869 4.82797 12.4907 5.11973C12.1944 5.41149 12.028 5.8072 12.028 6.2198V6.92513C9.00519 7.63045 7.28875 10.2857 7.28875 13.4802V18.6665L5.18351 20.7382V21.7772H22.0344V20.7382L19.9267 18.6633V13.4746ZM13.6077 24.8839C13.7494 24.8861 13.8908 24.8724 14.0293 24.8428C14.3629 24.7728 14.6747 24.6252 14.9385 24.4123C15.2024 24.1995 15.4107 23.9275 15.546 23.6191C15.6525 23.3634 15.7062 23.0894 15.704 22.813H11.496C11.5003 23.3628 11.7244 23.8888 12.1199 24.2769C12.5154 24.665 13.0503 24.884 13.6086 24.8863L13.6077 24.8839Z" fill="white"/>
</g>
</svg>
